<?xml version="1.0" encoding="UTF-8"?>
<svg id="svg8" xmlns="http://www.w3.org/2000/svg" viewBox="0 0 100 35.4">
  <g id="layer1">
    <path id="path36902" d="m82.1,0c-4,0-7.7,1.3-10.7,3.5-3-2.2-6.7-3.5-10.7-3.5s-7.7,1.3-10.7,3.5c-3-2.2-6.7-3.5-10.7-3.5s-7.7,1.3-10.7,3.5c-3-2.2-6.7-3.5-10.7-3.5C8,0,0,7.9,0,17.7s8,17.7,17.9,17.7c4,0,7.7-1.3,10.7-3.5,3,2.2,6.7,3.5,10.7,3.5s7.7-1.3,10.7-3.5c3,2.2,6.7,3.5,10.7,3.5s7.7-1.3,10.7-3.5c3,2.2,6.7,3.5,10.7,3.5,9.9,0,17.9-7.9,17.9-17.7S92,0,82.1,0h0Zm-10.7,26.7c-2.2-2.4-3.5-5.6-3.5-9.1s1.3-6.7,3.5-9.1c2.2,2.4,3.5,5.6,3.5,9.1s-1.3,6.7-3.5,9.1Zm-21.4,0c-2.2-2.4-3.5-5.6-3.5-9.1s1.3-6.7,3.5-9.1c2.2,2.4,3.5,5.6,3.5,9.1s-1.3,6.7-3.5,9.1Zm-21.4,0c-2.2-2.4-3.5-5.6-3.5-9.1s1.3-6.7,3.5-9.1c2.2,2.4,3.5,5.6,3.5,9.1s-1.3,6.7-3.5,9.1ZM3.7,17.6c0-7.7,6.4-14,14.2-14,2.9,0,5.6.9,7.9,2.4-2.7,3.1-4.4,7.1-4.4,11.6s1.7,8.5,4.4,11.6c-2.3,1.5-5,2.4-7.9,2.4-7.8,0-14.2-6.3-14.2-14h0Zm27.7,11.6c2.7-3.1,4.4-7.1,4.4-11.6s-1.7-8.5-4.4-11.6c2.3-1.5,5-2.4,7.9-2.4s5.6.9,7.9,2.4c-2.7,3.1-4.4,7.1-4.4,11.6s1.7,8.5,4.4,11.6c-2.3,1.5-5,2.4-7.9,2.4s-5.6-.9-7.9-2.4h0Zm21.4,0c2.7-3.1,4.4-7.1,4.4-11.6s-1.7-8.5-4.4-11.6c2.3-1.5,5-2.4,7.9-2.4s5.6.9,7.9,2.4c-2.7,3.1-4.4,7.1-4.4,11.6s1.7,8.5,4.4,11.6c-2.3,1.5-5,2.4-7.9,2.4s-5.6-.9-7.9-2.4Zm29.3,2.4c-2.9,0-5.6-.9-7.9-2.4,2.7-3.1,4.4-7.1,4.4-11.6s-1.7-8.5-4.4-11.6c2.3-1.5,5-2.4,7.9-2.4,7.8,0,14.2,6.3,14.2,14s-6.4,14-14.2,14Z"/>
  </g>
</svg>