<?xml version="1.0" encoding="utf-8"?>
<svg viewBox="0 0 656 656" xmlns="http://www.w3.org/2000/svg">
  <path fill="#FCFCFB" opacity="1.000000" stroke="none" d=" M582.393005,284.390381 C582.422485,284.757935 582.451965,285.125519 582.336853,286.091766 C582.273193,292.502686 582.354126,298.314880 582.327637,304.434265 C582.204590,305.172516 582.188965,305.603668 581.901001,306.288727 C576.901184,331.282440 561.676270,347.475098 539.053467,357.921143 C541.476501,358.856995 543.385010,358.990143 545.286255,359.192200 C556.517273,360.385864 567.945984,360.661713 578.932312,363.007080 C597.946228,367.066162 605.413330,377.226440 605.578308,396.670563 C605.735718,415.223145 600.349304,432.502747 593.059692,449.259430 C586.529236,464.271210 577.433716,477.575867 564.696411,488.029144 C555.927551,495.225647 545.924438,497.607117 535.344421,492.424469 C525.014221,487.364166 522.755859,478.106689 523.844604,467.512756 C523.984253,466.153442 523.863708,464.767395 523.863708,462.323242 C520.351501,464.072876 517.829041,465.221558 515.406372,466.552063 C443.088562,506.268433 365.690704,521.974548 283.652649,515.286011 C217.919800,509.926819 156.538788,490.586731 100.742157,455.310547 C80.979462,442.816010 62.967606,427.552155 44.029755,413.254272 C34.170464,402.327118 32.391270,389.714935 39.215031,379.723846 C45.691666,370.240997 58.602795,367.280609 71.646217,372.495117 C75.656334,374.098297 79.535599,376.078308 83.344643,378.127716 C175.794174,427.867676 274.101593,447.991119 378.650940,436.621124 C408.715607,433.351501 438.192139,427.217468 467.112823,418.398529 C470.261871,417.438232 473.340942,416.795685 470.500153,412.044495 C463.076935,399.629211 465.824707,386.495270 477.750061,378.325348 C483.337524,374.497467 489.684479,371.773163 495.711517,368.594818 C497.837708,367.473541 500.036072,366.489197 502.201477,365.442322 C498.454620,364.100281 494.813507,364.159454 491.315674,363.480621 C478.285004,360.951660 464.932495,359.315369 452.385071,355.238251 C432.785522,348.869629 425.545532,336.116882 427.530670,315.655731 C429.263489,297.794891 440.823456,288.933472 458.547211,292.244965 C463.422089,293.155731 468.149994,294.954254 472.872009,296.560944 C482.272797,299.759583 491.853424,301.756592 501.816650,300.860107 C504.150269,300.650146 506.396820,299.472900 508.683441,298.740692 C508.642700,298.150543 508.601990,297.560364 508.561249,296.970215 C506.184021,295.932281 503.871124,294.698853 501.417999,293.891541 C492.556915,290.975342 483.616791,288.298218 474.765381,285.353821 C460.317383,280.547729 448.074097,272.583801 439.286652,259.878235 C438.463989,258.688812 438.016937,257.239594 437.395477,255.910980 C436.762817,256.344543 436.130127,256.778107 435.497467,257.211670 C434.726379,259.179291 433.838928,261.110046 433.201935,263.120117 C425.755066,286.618561 418.376221,310.138550 410.917023,333.633057 C405.024139,352.194153 396.665070,358.377686 377.319000,358.596252 C372.988434,358.645203 368.653168,358.664978 364.325623,358.525421 C348.561279,358.017059 339.214630,350.782776 334.962677,335.582489 C332.989380,328.528351 331.469116,321.348480 329.636780,314.253204 C329.132874,312.302094 328.244324,310.450348 327.532257,308.553009 C327.084503,308.588684 326.636749,308.624390 326.188995,308.660065 C324.508820,315.380981 322.758270,322.085236 321.165222,328.826752 C318.874786,338.519440 315.787354,347.759705 307.446289,354.381866 C306.442657,354.858917 305.694916,355.339355 304.565613,355.836182 C302.136169,356.620880 300.088257,357.389221 297.650177,358.102966 C296.513458,358.264526 295.766937,358.480682 294.636658,358.571655 C292.532562,358.788879 290.812195,359.131378 288.726288,359.408813 C287.644653,359.495483 286.928589,359.647217 285.859924,359.556305 C284.677826,359.441345 283.848328,359.569092 282.576630,359.562744 C278.401978,359.523743 274.669495,359.618805 270.590607,359.529663 C269.469299,359.308899 268.694427,359.272339 267.666138,359.002899 C265.597748,358.389648 263.782745,358.009277 261.683289,357.390869 C251.867447,353.258057 246.548599,345.747772 243.614273,336.264038 C238.359039,319.279205 233.187057,302.268555 227.927994,285.284943 C227.241486,283.067932 226.246094,280.946594 225.393768,278.780945 C224.342438,280.024597 224.190781,280.970673 224.125534,281.922668 C223.401764,292.483154 224.177139,302.679871 228.742004,312.594025 C234.303513,324.672760 233.270020,336.214386 223.512344,346.162689 C223.218552,346.462219 223.224167,347.055420 223.090210,347.511719 C222.170197,348.182983 221.250168,348.854248 219.814758,349.677460 C213.555893,352.783539 207.812393,355.737671 201.759399,358.581207 C200.661316,358.733826 199.872726,358.997009 198.720078,359.213104 C197.902069,359.326355 197.448120,359.486664 196.562073,359.515442 C193.404755,359.306519 190.679520,359.229187 187.762177,358.940979 C187.025879,358.738861 186.481689,358.747620 185.602173,358.544434 C181.400131,356.427704 177.533417,354.522888 173.520386,352.387268 C172.600082,352.154846 171.826096,352.153290 170.757538,352.101868 C169.762970,352.620880 169.062958,353.189758 168.362946,353.758636 C167.708511,354.093475 167.054047,354.428314 166.060577,354.709167 C165.413803,354.549011 165.174988,354.634491 164.693680,354.903564 C163.890808,355.238220 163.399399,355.580994 162.945679,355.956024 C162.983353,355.988281 162.944153,355.897156 162.628754,355.884766 C161.864990,356.247681 161.416626,356.623016 160.981094,356.994049 C160.993927,356.989746 161.001938,356.973297 160.678024,356.884949 C159.198975,357.333160 158.043839,357.869690 156.598419,358.439636 C155.203308,359.083710 154.098480,359.694336 152.993668,360.304932 C152.616776,360.356506 152.239883,360.408051 151.232361,360.375183 C139.535339,361.346008 128.411636,363.679474 117.414688,363.186340 C95.532890,362.205078 77.435364,352.746796 65.831451,333.650940 C45.791977,300.673218 57.278667,257.900421 90.759232,238.822281 C93.286369,237.382233 95.763733,235.854858 99.483025,233.643417 C95.564171,233.400574 93.122650,233.330444 90.699013,233.084244 C82.696213,232.271317 75.871513,229.333481 71.509171,222.131226 C61.124474,204.985977 68.183868,180.600739 86.153305,172.159821 C105.341805,163.146271 125.738258,159.725159 146.805405,159.451096 C165.716690,159.205078 183.049866,164.000961 198.469009,175.105804 C201.033737,176.952911 202.976089,177.569672 205.093948,174.498215 C209.729156,167.775986 216.629227,165.150360 224.431686,164.696945 C229.745529,164.388153 235.088699,164.419250 240.414764,164.516327 C257.727051,164.831757 267.222595,171.927841 272.194305,188.613998 C274.759918,197.224792 276.757843,206.003983 279.068787,214.692062 C279.560150,216.539429 280.297058,218.321487 280.920837,220.133621 C281.436584,220.152893 281.952362,220.172150 282.468109,220.191406 C283.143158,217.082108 283.818237,213.972824 284.616028,210.562958 C284.790131,209.834488 284.841522,209.406570 285.172302,208.734253 C287.456024,200.754776 289.253174,192.958557 291.514252,185.299271 C294.741333,174.367645 302.317627,167.522598 313.391937,165.797043 C321.369385,164.554062 329.676086,164.406616 337.745728,164.999008 C351.662323,166.020645 360.936310,173.517532 364.514130,187.295853 C366.857513,196.320404 368.933044,205.414200 371.211365,214.456116 C371.742859,216.565323 372.610657,218.589783 373.323730,220.653229 C375.206146,218.404785 376.023987,216.283768 376.631439,214.104095 C379.358368,204.319519 381.774719,194.440338 384.787781,184.745941 C387.554138,175.845352 393.123993,169.003632 402.411499,166.455414 C414.342926,163.181763 426.543091,163.316849 438.458496,166.352646 C442.224457,167.312149 445.765869,170.277420 448.691406,173.075989 C451.305267,175.576447 453.043549,175.371841 456.025543,173.899139 C463.598511,170.159042 471.147522,165.899902 479.211914,163.718201 C499.140320,158.326859 519.309143,158.197723 539.487488,163.358902 C555.518311,167.459229 569.402405,173.857269 574.358948,191.799591 C574.447876,192.719437 574.561829,193.331894 574.507690,194.317490 C574.412537,199.181290 574.485474,203.671936 574.458862,208.466400 C574.328125,209.194092 574.296875,209.617966 573.988159,210.269882 C572.092041,214.296585 570.473572,218.095230 568.612427,222.056396 C567.439941,223.144272 566.510193,224.069611 565.217834,225.005188 C564.636536,225.397736 564.417847,225.780029 564.199158,226.162323 C563.367310,226.582581 562.535461,227.002838 561.210083,227.434921 C560.458557,227.678665 560.200500,227.910568 559.587219,228.171295 C558.571655,228.452972 557.911316,228.705811 556.977051,228.757202 C556.156738,228.838577 555.610352,229.121399 554.592407,229.401978 C551.026672,229.681778 547.932434,229.963837 544.602539,230.009750 C543.929688,229.705978 543.492554,229.638336 543.052490,229.281189 C542.331604,228.879639 541.613708,228.767593 540.643066,228.523270 C540.037292,228.470825 539.684143,228.550659 539.247498,228.675720 C539.163940,228.720947 539.287781,228.576813 539.166992,228.284393 C538.278137,227.929901 537.510132,227.867828 536.423706,227.610168 C533.762085,226.676682 531.419006,225.938782 528.873535,224.964569 C528.470520,224.780563 528.269836,224.832840 527.917297,224.767395 C527.765442,224.649658 527.382874,224.612946 527.306641,224.353836 C526.487000,224.064316 525.743713,224.033905 524.746643,223.876678 C524.119507,223.704468 523.746033,223.659073 523.175964,223.300629 C521.538513,222.932632 520.097656,222.877686 518.332397,222.693878 C517.315063,222.538055 516.622192,222.511093 515.680176,222.171265 C511.728821,221.858414 508.026520,221.858414 504.324249,221.858414 C504.223572,222.556259 504.122894,223.254105 504.022186,223.951935 C506.012939,224.781830 508.003662,225.611710 510.324127,226.671143 C511.425842,226.949890 512.197815,226.999084 513.231201,227.246460 C514.549133,227.736938 515.605652,228.029205 516.810181,228.634262 C518.728455,229.327942 520.498779,229.708832 522.616089,230.295105 C530.964600,233.054916 538.966003,235.609360 546.983032,238.136200 C546.998596,238.108627 547.003418,238.164337 547.401733,238.597961 C548.190125,239.075500 548.580139,239.119415 548.986023,239.135880 C549.001831,239.108429 549.006897,239.162674 549.148926,239.520767 C549.730408,240.137268 550.169922,240.395691 550.739990,240.934967 C551.422302,241.441162 551.973999,241.666504 552.643677,242.111282 C553.010010,242.576157 553.308472,242.704803 553.822693,242.985458 C568.654663,252.604568 578.100220,265.568909 581.418823,282.799042 C581.528931,283.370819 582.058777,283.861755 582.393005,284.390381 M57.853611,388.823914 C53.422909,391.697662 53.061546,394.314697 56.921520,397.772736 C74.834511,413.820679 93.957603,428.333374 114.557030,440.701080 C164.807571,470.870972 218.990417,489.502502 277.487305,495.289917 C316.368042,499.136627 354.982422,497.849701 393.361481,490.411011 C437.464783,481.862854 478.576294,465.515991 517.171570,442.699310 C523.042786,439.228394 528.697998,435.359406 534.242432,431.380920 C537.412964,429.105835 539.320618,425.841461 537.272278,421.839752 C535.329163,418.043640 531.819885,417.161896 527.885559,417.928833 C526.105347,418.275879 524.367676,418.943329 522.675781,419.626556 C476.259827,438.370819 428.285522,450.943268 378.445129,456.189606 C349.384399,459.248627 320.298553,459.801331 291.115784,458.083282 C255.907928,456.010529 221.333755,450.216797 187.326355,441.098206 C144.817322,429.700043 104.452736,412.947906 66.031685,391.481506 C63.759338,390.211884 61.114223,389.609406 57.853611,388.823914 M317.588318,257.050781 C320.615448,244.449738 323.642578,231.848694 326.669708,219.247650 C330.408844,230.932846 333.183960,242.400894 335.962433,253.868149 C342.225677,279.717957 348.441620,305.579468 354.788055,331.408844 C356.457581,338.203613 358.718109,339.764496 365.714142,339.826874 C369.380035,339.859558 373.046509,339.835907 376.712708,339.832977 C386.507629,339.825134 388.127228,338.656464 391.018372,329.484741 C405.253204,284.326874 419.498230,239.172134 433.675598,193.996185 C434.260651,192.131989 434.354614,190.070877 434.412506,188.093750 C434.507721,184.843292 432.809479,183.170670 429.519806,183.173203 C425.353668,183.176392 421.187561,183.165329 417.021423,183.167282 C407.066376,183.171982 405.298004,184.429230 402.784912,194.071075 C393.184448,230.904785 383.652740,267.756439 374.079987,304.597382 C373.756134,305.843750 373.267761,307.047363 372.540771,309.207947 C368.835846,293.314301 365.417053,278.577789 361.963593,263.849365 C356.346436,239.893280 350.758636,215.930084 345.041229,191.997894 C343.539185,185.710464 341.226013,183.994888 334.915344,183.864685 C329.918121,183.761566 324.914368,183.744110 319.918365,183.874100 C314.119141,184.024979 311.547333,186.224777 310.148071,191.915085 C309.711548,193.690277 309.377106,195.490341 308.955261,197.269379 C300.187164,234.245331 291.413177,271.219879 282.435974,309.056183 C281.754028,307.213196 281.267212,306.192963 280.994965,305.118408 C275.320374,282.720703 269.667053,260.317596 264.016144,237.913895 C260.316528,223.246185 256.670013,208.564957 252.917664,193.910782 C250.638428,185.009583 248.623230,183.544556 239.286423,183.521591 C235.786880,183.512985 232.287292,183.516205 228.787735,183.521103 C220.492798,183.532700 219.201416,185.279800 221.492035,193.385376 C221.718155,194.185501 221.949188,194.984375 222.190186,195.780121 C230.137955,222.021423 238.091568,248.260941 246.034851,274.503571 C251.715271,293.270264 257.345306,312.052338 263.072479,330.804718 C265.504364,338.767456 267.705444,340.257111 276.055389,340.107483 C280.220795,340.032806 284.386505,339.963470 288.550995,339.851654 C295.825470,339.656311 298.154938,337.987366 299.819214,331.090790 C305.708466,306.686432 311.487122,282.255371 317.588318,257.050781 M76.597488,299.479309 C76.603706,320.402161 88.069153,336.553375 108.216576,342.144714 C127.106140,347.387024 145.198471,344.347198 161.574585,333.415588 C167.005753,329.790131 171.716415,325.085358 176.396484,321.174835 C179.787170,326.279907 182.988876,331.747559 186.836807,336.714569 C190.798187,341.828094 193.977814,342.080688 199.340332,338.690369 C201.730881,337.178986 204.048126,335.551422 206.394501,333.970428 C213.732010,329.026337 214.117325,327.996338 210.067657,320.264160 C205.476059,311.497253 203.552155,302.237854 203.677429,292.380035 C203.935776,272.050659 203.904968,251.717728 204.135345,231.387848 C204.433044,205.115494 187.607971,184.211563 161.882217,179.957184 C140.523941,176.425049 119.717873,179.423294 99.767891,187.612900 C86.752090,192.955978 86.870659,193.244583 87.281837,207.269302 C87.291603,207.602402 87.278938,207.936646 87.300758,208.268799 C87.668518,213.864944 89.701057,215.314407 95.181015,213.756439 C97.095352,213.212173 98.961433,212.478012 100.815025,211.743454 C113.615295,206.670792 126.811760,203.712540 140.657532,203.635620 C156.179749,203.549393 169.625977,208.893661 173.307083,224.646851 C175.385300,233.540512 174.950653,243.021362 175.685852,252.739395 C172.581680,252.200623 170.607056,251.938736 168.669785,251.508667 C154.765732,248.422089 140.688782,246.987320 126.490479,248.068573 C103.069832,249.852158 75.199059,265.964203 76.597488,299.479309 M522.635559,179.748199 C505.819702,177.733994 489.312469,178.794540 473.838531,186.177658 C464.304810,190.726532 456.894531,197.984558 452.191345,207.569000 C442.423523,227.474426 451.158783,252.796631 472.559753,262.821838 C485.401489,268.837494 499.505188,272.121094 512.913330,276.986481 C517.530090,278.661743 522.208496,280.819244 526.078857,283.776947 C537.462891,292.476624 535.794617,308.290741 523.177063,315.091431 C513.555542,320.277252 503.169830,321.011261 492.606567,320.327759 C479.884949,319.504639 467.671906,316.552429 456.065613,311.091431 C450.218842,308.340393 447.113098,310.466492 447.009277,316.814972 C446.971130,319.147125 447.064117,321.482330 446.991272,323.812805 C446.833069,328.874695 449.119690,332.694672 453.583130,334.625824 C478.892609,345.576019 504.922333,349.182983 531.131287,338.784485 C550.029419,331.286530 561.785828,317.386780 562.363220,295.981995 C562.860413,277.552612 553.306030,263.306366 534.181091,255.400177 C524.847778,251.541824 514.815918,249.406799 505.321899,245.892685 C498.367523,243.318542 491.170074,240.640335 485.149231,236.467209 C473.517792,228.405273 475.802979,211.542572 488.654938,205.639160 C498.634583,201.055054 509.153198,200.981461 519.516052,202.747925 C528.446289,204.270157 537.108948,207.363007 545.888367,209.767044 C548.698608,210.536560 551.790466,212.415710 553.817139,208.670029 C557.897827,201.128265 553.677856,188.941223 545.524292,186.029831 C538.367371,183.474319 530.861694,181.895721 522.635559,179.748199 M502.616730,387.027649 C498.091705,389.485504 493.396362,391.687683 489.128418,394.531342 C487.498657,395.617218 486.847900,398.172424 485.751007,400.058044 C487.757904,400.774963 489.816864,402.222626 491.762848,402.084076 C500.885712,401.434540 509.963623,399.793121 519.083984,399.565857 C529.344543,399.310181 539.714722,399.530090 549.884399,400.782898 C558.065430,401.790741 560.253784,405.381439 559.936401,413.523956 C559.794678,417.156830 559.464172,420.911499 558.398071,424.356750 C553.783325,439.270203 548.780273,454.063446 544.154724,468.973724 C543.513916,471.039276 544.192383,473.514099 544.260132,475.799469 C546.623352,475.091339 549.645142,475.082123 551.250366,473.569550 C572.903564,453.166290 583.214905,427.396332 585.711121,398.251862 C586.680908,386.930206 583.641174,383.322998 572.457214,381.084839 C548.903137,376.371094 525.806702,377.917725 502.616730,387.027649 M150.501007,226.985962 C147.274826,225.645737 144.015259,223.120987 140.829391,223.210785 C134.105576,223.400314 127.390083,224.796066 120.735390,226.040359 C118.348228,226.486694 116.145882,227.921402 114.080009,228.810028 C125.462944,228.810028 136.723175,228.833466 147.982819,228.763275 C148.836334,228.757965 149.685715,228.087738 150.501007,226.985962 z"/>
  <path fill="#FF9A02" opacity="1.000000" stroke="none" d=" M58.248085,388.760193 C61.114223,389.609406 63.759338,390.211884 66.031685,391.481506 C104.452736,412.947906 144.817322,429.700043 187.326355,441.098206 C221.333755,450.216797 255.907928,456.010529 291.115784,458.083282 C320.298553,459.801331 349.384399,459.248627 378.445129,456.189606 C428.285522,450.943268 476.259827,438.370819 522.675781,419.626556 C524.367676,418.943329 526.105347,418.275879 527.885559,417.928833 C531.819885,417.161896 535.329163,418.043640 537.272278,421.839752 C539.320618,425.841461 537.412964,429.105835 534.242432,431.380920 C528.697998,435.359406 523.042786,439.228394 517.171570,442.699310 C478.576294,465.515991 437.464783,481.862854 393.361481,490.411011 C354.982422,497.849701 316.368042,499.136627 277.487305,495.289917 C218.990417,489.502502 164.807571,470.870972 114.557030,440.701080 C93.957603,428.333374 74.834511,413.820679 56.921520,397.772736 C53.061546,394.314697 53.422909,391.697662 58.248085,388.760193 z"/>
  <path fill="#253140" opacity="1.000000" stroke="none" d=" M317.447998,257.442627 C311.487122,282.255371 305.708466,306.686432 299.819214,331.090790 C298.154938,337.987366 295.825470,339.656311 288.550995,339.851654 C284.386505,339.963470 280.220795,340.032806 276.055389,340.107483 C267.705444,340.257111 265.504364,338.767456 263.072479,330.804718 C257.345306,312.052338 251.715271,293.270264 246.034851,274.503571 C238.091568,248.260941 230.137955,222.021423 222.190186,195.780121 C221.949188,194.984375 221.718155,194.185501 221.492035,193.385376 C219.201416,185.279800 220.492798,183.532700 228.787735,183.521103 C232.287292,183.516205 235.786880,183.512985 239.286423,183.521591 C248.623230,183.544556 250.638428,185.009583 252.917664,193.910782 C256.670013,208.564957 260.316528,223.246185 264.016144,237.913895 C269.667053,260.317596 275.320374,282.720703 280.994965,305.118408 C281.267212,306.192963 281.754028,307.213196 282.435974,309.056183 C291.413177,271.219879 300.187164,234.245331 308.955261,197.269379 C309.377106,195.490341 309.711548,193.690277 310.148071,191.915085 C311.547333,186.224777 314.119141,184.024979 319.918365,183.874100 C324.914368,183.744110 329.918121,183.761566 334.915344,183.864685 C341.226013,183.994888 343.539185,185.710464 345.041229,191.997894 C350.758636,215.930084 356.346436,239.893280 361.963593,263.849365 C365.417053,278.577789 368.835846,293.314301 372.540771,309.207947 C373.267761,307.047363 373.756134,305.843750 374.079987,304.597382 C383.652740,267.756439 393.184448,230.904785 402.784912,194.071075 C405.298004,184.429230 407.066376,183.171982 417.021423,183.167282 C421.187561,183.165329 425.353668,183.176392 429.519806,183.173203 C432.809479,183.170670 434.507721,184.843292 434.412506,188.093750 C434.354614,190.070877 434.260651,192.131989 433.675598,193.996185 C419.498230,239.172134 405.253204,284.326874 391.018372,329.484741 C388.127228,338.656464 386.507629,339.825134 376.712708,339.832977 C373.046509,339.835907 369.380035,339.859558 365.714142,339.826874 C358.718109,339.764496 356.457581,338.203613 354.788055,331.408844 C348.441620,305.579468 342.225677,279.717957 335.962433,253.868149 C333.183960,242.400894 330.408844,230.932846 326.669708,219.247650 C323.642578,231.848694 320.615448,244.449738 317.447998,257.442627 z"/>
  <path fill="#253140" opacity="1.000000" stroke="none" d=" M76.606758,298.989136 C75.199059,265.964203 103.069832,249.852158 126.490479,248.068573 C140.688782,246.987320 154.765732,248.422089 168.669785,251.508667 C170.607056,251.938736 172.581680,252.200623 175.685852,252.739395 C174.950653,243.021362 175.385300,233.540512 173.307083,224.646851 C169.625977,208.893661 156.179749,203.549393 140.657532,203.635620 C126.811760,203.712540 113.615295,206.670792 100.815025,211.743454 C98.961433,212.478012 97.095352,213.212173 95.181015,213.756439 C89.701057,215.314407 87.668518,213.864944 87.300758,208.268799 C87.278938,207.936646 87.291603,207.602402 87.281837,207.269302 C86.870659,193.244583 86.752090,192.955978 99.767891,187.612900 C119.717873,179.423294 140.523941,176.425049 161.882217,179.957184 C187.607971,184.211563 204.433044,205.115494 204.135345,231.387848 C203.904968,251.717728 203.935776,272.050659 203.677429,292.380035 C203.552155,302.237854 205.476059,311.497253 210.067657,320.264160 C214.117325,327.996338 213.732010,329.026337 206.394501,333.970428 C204.048126,335.551422 201.730881,337.178986 199.340332,338.690369 C193.977814,342.080688 190.798187,341.828094 186.836807,336.714569 C182.988876,331.747559 179.787170,326.279907 176.396484,321.174835 C171.716415,325.085358 167.005753,329.790131 161.574585,333.415588 C145.198471,344.347198 127.106140,347.387024 108.216576,342.144714 C88.069153,336.553375 76.603706,320.402161 76.606758,298.989136 M116.696266,276.088226 C108.761414,282.135864 106.636284,290.430573 106.963715,299.959320 C107.325127,310.477112 112.877029,318.708801 123.119698,320.436066 C136.244217,322.649353 149.114792,320.654907 160.414444,313.177582 C175.307327,303.322418 176.106277,288.141693 174.969223,270.920685 C161.400421,270.573151 147.969238,269.612671 134.601730,270.172424 C128.777573,270.416351 123.084007,273.779114 116.696266,276.088226 z"/>
  <path fill="#253140" opacity="1.000000" stroke="none" d=" M523.072754,179.816925 C530.861694,181.895721 538.367371,183.474319 545.524292,186.029831 C553.677856,188.941223 557.897827,201.128265 553.817139,208.670029 C551.790466,212.415710 548.698608,210.536560 545.888367,209.767044 C537.108948,207.363007 528.446289,204.270157 519.516052,202.747925 C509.153198,200.981461 498.634583,201.055054 488.654938,205.639160 C475.802979,211.542572 473.517792,228.405273 485.149231,236.467209 C491.170074,240.640335 498.367523,243.318542 505.321899,245.892685 C514.815918,249.406799 524.847778,251.541824 534.181091,255.400177 C553.306030,263.306366 562.860413,277.552612 562.363220,295.981995 C561.785828,317.386780 550.029419,331.286530 531.131287,338.784485 C504.922333,349.182983 478.892609,345.576019 453.583130,334.625824 C449.119690,332.694672 446.833069,328.874695 446.991272,323.812805 C447.064117,321.482330 446.971130,319.147125 447.009277,316.814972 C447.113098,310.466492 450.218842,308.340393 456.065613,311.091431 C467.671906,316.552429 479.884949,319.504639 492.606567,320.327759 C503.169830,321.011261 513.555542,320.277252 523.177063,315.091431 C535.794617,308.290741 537.462891,292.476624 526.078857,283.776947 C522.208496,280.819244 517.530090,278.661743 512.913330,276.986481 C499.505188,272.121094 485.401489,268.837494 472.559753,262.821838 C451.158783,252.796631 442.423523,227.474426 452.191345,207.569000 C456.894531,197.984558 464.304810,190.726532 473.838531,186.177658 C489.312469,178.794540 505.819702,177.733994 523.072754,179.816925 z"/>
  <path fill="#FF9A03" opacity="1.000000" stroke="none" d=" M502.979858,386.905029 C525.806702,377.917725 548.903137,376.371094 572.457214,381.084839 C583.641174,383.322998 586.680908,386.930206 585.711121,398.251862 C583.214905,427.396332 572.903564,453.166290 551.250366,473.569550 C549.645142,475.082123 546.623352,475.091339 544.260132,475.799438 C544.192383,473.514099 543.513916,471.039276 544.154724,468.973724 C548.780273,454.063446 553.783325,439.270203 558.398071,424.356750 C559.464172,420.911499 559.794678,417.156830 559.936401,413.523956 C560.253784,405.381439 558.065430,401.790741 549.884399,400.782898 C539.714722,399.530090 529.344543,399.310181 519.083984,399.565857 C509.963623,399.793121 500.885712,401.434540 491.762848,402.084076 C489.816864,402.222626 487.757904,400.774963 485.751038,400.058044 C486.847900,398.172424 487.498657,395.617218 489.128418,394.531342 C493.396362,391.687683 498.091705,389.485504 502.979858,386.905029 z"/>
  <path fill="#646464" opacity="1.000000" stroke="none" d=" M546.983032,238.136215 C546.967407,238.163803 547.061584,237.726242 547.061584,237.726242 C547.061584,237.726242 547.420044,237.988403 547.211731,238.076370 C547.003418,238.164337 546.998596,238.108627 546.983032,238.136215 z"/>
  <path fill="#646464" opacity="1.000000" stroke="none" d=" M548.986023,239.135880 C548.970215,239.163330 549.065186,238.727783 549.065186,238.727783 C549.065186,238.727783 549.422241,238.988892 549.214600,239.075775 C549.006897,239.162674 549.001831,239.108429 548.986023,239.135880 z"/>
  <path fill="#000000" opacity="1.000000" stroke="none" d=" M541.456665,232.531693 C541.423767,232.477097 541.489624,232.586288 541.456665,232.531693 z"/>
  <path fill="#FCFDFD" opacity="1.000000" stroke="none" d=" M117.013702,275.906860 C123.084007,273.779114 128.777573,270.416351 134.601730,270.172424 C147.969238,269.612671 161.400421,270.573151 174.969223,270.920685 C176.106277,288.141693 175.307327,303.322418 160.414444,313.177582 C149.114792,320.654907 136.244217,322.649353 123.119698,320.436066 C112.877029,318.708801 107.325127,310.477112 106.963715,299.959320 C106.636284,290.430573 108.761414,282.135864 117.013702,275.906860 M151.526413,293.191284 C153.322403,290.036377 151.630981,288.748627 148.778427,288.726685 C144.806961,288.696136 140.790070,288.810577 136.875427,289.406677 C134.685486,289.740173 132.080170,290.671387 130.725876,292.247406 C129.323868,293.878937 128.320297,296.854767 128.839172,298.786926 C129.191910,300.100403 132.531174,301.492615 134.423080,301.351410 C140.806412,300.875000 146.913345,299.241180 151.526413,293.191284 z"/>
</svg>