<?xml version="1.0" encoding="utf-8"?>
<svg version="1.1" id="Layer_1" x="0px" y="0px" width="100%" viewBox="0 0 2272 2272" enable-background="new 0 0 2272 2272" xmlns="http://www.w3.org/2000/svg">
  <defs/>
  <path fill="#FDFDFD" opacity="1.000000" stroke="none" d="&#10;M1300.597290,2008.663574 &#10;&#9;C1285.713989,2052.097412 1275.278931,2095.831787 1268.428711,2140.359619 &#10;&#9;C1264.075806,2168.654785 1251.248047,2191.570801 1230.289062,2210.908203 &#10;&#9;C1212.907715,2226.944580 1192.425781,2233.896484 1169.626465,2235.934326 &#10;&#9;C1153.167847,2237.405762 1136.999023,2235.471680 1121.141968,2231.054199 &#10;&#9;C1110.405273,2228.062988 1100.754028,2222.765137 1092.255005,2215.595459 &#10;&#9;C1077.910889,2203.495117 1065.156128,2189.949219 1055.456543,2173.734131 &#10;&#9;C1002.203613,2084.708008 958.371948,1991.276855 929.085327,1891.703857 &#10;&#9;C900.835144,1795.654663 884.947388,1697.495605 887.715027,1596.881958 &#10;&#9;C888.781372,1558.119019 893.517334,1519.821411 900.868835,1481.798828 &#10;&#9;C901.437561,1478.857300 901.897217,1475.889648 902.259766,1472.916016 &#10;&#9;C902.374268,1471.976929 902.006714,1470.979126 901.791321,1469.555786 &#10;&#9;C892.902344,1466.349609 884.549683,1465.245605 875.298523,1470.235229 &#10;&#9;C851.776184,1482.922119 825.780945,1486.040039 799.687317,1485.825806 &#10;&#9;C763.440186,1485.527954 728.696045,1478.209839 698.671509,1456.236084 &#10;&#9;C648.254028,1419.337402 613.954651,1372.008179 603.986389,1308.956055 &#10;&#9;C600.029419,1283.927368 595.542419,1258.991455 595.893921,1233.519897 &#10;&#9;C596.285950,1205.110840 600.325500,1177.094116 604.641174,1149.074585 &#10;&#9;C613.358337,1092.478638 631.327209,1038.407349 648.828613,984.180298 &#10;&#9;C662.846863,940.745667 676.648621,897.240723 690.399475,853.720520 &#10;&#9;C704.145691,810.215149 711.677734,765.696655 711.748596,719.987671 &#10;&#9;C711.759399,712.992554 711.825928,705.955688 712.581055,699.015808 &#10;&#9;C713.274475,692.643372 710.676025,689.333069 705.107849,686.698181 &#10;&#9;C683.421936,676.435913 661.909546,665.806946 640.331116,655.317444 &#10;&#9;C465.603851,570.380493 290.891998,485.411682 116.124184,400.558228 &#10;&#9;C98.629250,392.064056 82.393021,382.150208 68.088127,368.648529 &#10;&#9;C40.374573,342.491089 33.082180,310.240021 36.557121,273.823669 &#10;&#9;C39.623642,241.687454 57.091022,218.724640 82.166321,200.821182 &#10;&#9;C103.571327,185.538284 128.567078,182.366913 153.848404,184.888535 &#10;&#9;C171.644455,186.663574 189.448746,190.441010 206.698624,195.285416 &#10;&#9;C385.388336,245.468140 563.966125,296.049469 742.574890,346.520416 &#10;&#9;C773.037659,355.128510 803.496460,363.750854 833.967102,372.331085 &#10;&#9;C837.391907,373.295532 840.882080,374.027832 846.008301,375.272308 &#10;&#9;C844.673218,371.061951 844.288940,368.132294 842.909790,365.787964 &#10;&#9;C835.654846,353.455841 828.464661,341.064819 820.638367,329.095581 &#10;&#9;C813.166260,317.668030 804.565796,306.977203 797.117004,295.535675 &#10;&#9;C775.584167,262.460480 772.211914,226.214966 785.306213,190.148285 &#10;&#9;C797.169922,157.470993 821.800232,135.707245 856.558655,127.444893 &#10;&#9;C875.528320,122.935654 894.790466,122.067436 914.176819,124.642868 &#10;&#9;C916.706665,124.978951 919.319580,124.688972 922.237366,124.688972 &#10;&#9;C922.965332,122.152817 923.859802,120.004158 924.180420,117.773041 &#10;&#9;C928.692017,86.376511 969.052124,47.505310 1002.024597,42.626469 &#10;&#9;C1029.185547,38.607540 1055.261108,40.579174 1080.967651,48.647804 &#10;&#9;C1159.328125,73.243141 1230.769775,111.391624 1296.467651,160.442825 &#10;&#9;C1310.078491,170.605011 1322.967773,181.730423 1336.491699,192.014755 &#10;&#9;C1340.017090,194.695755 1344.512451,196.815918 1348.848633,197.590179 &#10;&#9;C1365.882812,200.631790 1383.247192,202.070038 1400.098389,205.846603 &#10;&#9;C1458.945923,219.035217 1517.904297,231.881546 1576.314697,246.833694 &#10;&#9;C1668.476685,270.425720 1753.862793,309.684875 1833.162231,362.285187 &#10;&#9;C1862.923462,382.026245 1891.690796,403.042542 1918.817993,426.260315 &#10;&#9;C1956.301147,458.341766 1993.645508,490.598663 2027.234009,526.866760 &#10;&#9;C2050.810303,552.323853 2073.329102,578.598328 2091.157471,608.625793 &#10;&#9;C2102.725586,628.108887 2111.151367,648.414856 2113.054688,671.238220 &#10;&#9;C2114.803467,692.212646 2112.621826,712.563477 2103.907715,731.802551 &#10;&#9;C2101.302490,737.554321 2102.177002,741.461853 2105.717285,746.293213 &#10;&#9;C2166.480957,829.222595 2204.331055,921.699036 2222.391846,1022.821655 &#10;&#9;C2231.338867,1072.914795 2235.631836,1123.225708 2235.807373,1173.969360 &#10;&#9;C2235.964844,1219.464478 2229.800781,1264.334229 2221.637939,1309.000610 &#10;&#9;C2203.436768,1408.594727 2163.835938,1498.638428 2100.834473,1577.967651 &#10;&#9;C2062.996338,1625.612183 2020.162231,1668.335327 1972.381714,1706.282471 &#10;&#9;C1896.311646,1766.697632 1811.972534,1812.711670 1722.978149,1850.325684 &#10;&#9;C1649.331299,1881.453125 1574.761475,1910.402466 1500.516357,1940.106323 &#10;&#9;C1467.707031,1953.232666 1435.118774,1966.800171 1403.655396,1982.956909 &#10;&#9;C1379.762451,1995.226196 1354.402222,2001.320435 1327.481812,2000.034790 &#10;&#9;C1320.228394,1999.688354 1313.015625,1998.487183 1305.048218,1997.595947 &#10;&#9;C1303.542358,2001.280273 1302.190063,2004.588867 1300.597290,2008.663574 &#10;M1365.893433,943.067078 &#10;&#9;C1365.733887,946.394409 1365.476685,949.720398 1365.429688,953.049316 &#10;&#9;C1364.894775,990.967041 1353.910522,1025.788696 1334.570190,1058.205200 &#10;&#9;C1321.706665,1079.766113 1306.669556,1099.641846 1289.372070,1117.829346 &#10;&#9;C1258.732788,1150.044922 1224.296021,1177.958008 1189.960449,1206.016479 &#10;&#9;C1172.423706,1220.347168 1154.214478,1234.152588 1138.413452,1250.259766 &#10;&#9;C1055.667969,1334.608521 1011.442993,1437.248657 998.326050,1553.710815 &#10;&#9;C992.794189,1602.827026 993.791687,1652.157593 999.554749,1701.354736 &#10;&#9;C1006.396301,1759.758667 1018.434204,1817.056763 1036.756348,1872.886963 &#10;&#9;C1065.635132,1960.885010 1104.716064,2044.281494 1152.376831,2123.666504 &#10;&#9;C1154.001343,2126.372070 1156.284180,2128.682129 1159.337158,2132.536377 &#10;&#9;C1160.894287,2127.284424 1162.147827,2123.927246 1162.866577,2120.459473 &#10;&#9;C1164.623413,2111.984619 1166.305542,2103.487549 1167.715576,2094.949219 &#10;&#9;C1183.448364,1999.683838 1214.819702,1909.974365 1263.030518,1826.234009 &#10;&#9;C1299.613159,1762.691406 1344.767700,1706.207886 1401.714722,1659.707031 &#10;&#9;C1418.723511,1645.818237 1436.846680,1633.269043 1454.748535,1620.511963 &#10;&#9;C1461.398926,1615.772827 1468.712769,1611.809448 1479.116089,1609.719238 &#10;&#9;C1472.454468,1618.796753 1467.230469,1626.415283 1461.504272,1633.635620 &#10;&#9;C1429.319946,1674.218384 1400.608887,1717.021973 1377.762939,1763.614136 &#10;&#9;C1360.874512,1798.056519 1345.463623,1833.074585 1336.914673,1870.681274 &#10;&#9;C1335.183105,1878.298218 1332.696289,1885.961914 1334.526245,1895.096924 &#10;&#9;C1338.685547,1893.280884 1342.382568,1891.931763 1345.836182,1890.118774 &#10;&#9;C1391.929077,1865.924438 1440.265625,1846.875366 1488.560303,1827.720581 &#10;&#9;C1547.366577,1804.396484 1606.456299,1781.751099 1664.865845,1757.470947 &#10;&#9;C1742.279053,1725.291138 1816.200684,1686.411011 1884.388306,1637.262085 &#10;&#9;C1892.475098,1631.433105 1899.969604,1624.750854 1907.453735,1618.141479 &#10;&#9;C1909.112061,1616.677002 1909.562622,1613.844849 1911.941650,1612.299805 &#10;&#9;C1918.592896,1613.139771 1922.170654,1608.034912 1926.319092,1604.481934 &#10;&#9;C1954.463867,1580.376221 1980.435791,1554.134644 2003.905273,1525.408203 &#10;&#9;C2042.382202,1478.312866 2073.051514,1426.770142 2093.405762,1369.314697 &#10;&#9;C2111.386719,1318.558594 2122.526855,1266.439453 2126.620117,1212.628052 &#10;&#9;C2129.437256,1175.591431 2128.207275,1138.655273 2125.281006,1101.894043 &#10;&#9;C2123.100342,1074.500977 2117.664307,1047.218750 2111.792725,1020.298218 &#10;&#9;C2098.567139,959.660645 2075.645264,902.722290 2043.794800,849.352661 &#10;&#9;C2012.882935,797.555786 1973.073853,753.492188 1927.337524,714.636047 &#10;&#9;C1871.768188,667.426147 1811.275024,627.440796 1746.403931,594.197876 &#10;&#9;C1722.998169,582.203674 1698.975220,571.415771 1675.270752,560.000549 &#10;&#9;C1673.470337,559.133423 1671.966309,557.650513 1669.153198,555.599976 &#10;&#9;C1672.100952,555.007874 1673.323486,554.552429 1674.543579,554.558899 &#10;&#9;C1677.533691,554.574585 1680.537109,554.662170 1683.509644,554.968445 &#10;&#9;C1711.123901,557.813110 1737.820068,564.813782 1764.163696,573.217773 &#10;&#9;C1810.590698,588.028625 1855.233521,607.318970 1898.847046,628.856384 &#10;&#9;C1931.386963,644.925598 1963.164673,662.536133 1995.342651,679.343933 &#10;&#9;C1998.607178,681.049133 2001.671143,684.021423 2007.047363,682.972900 &#10;&#9;C2005.336182,679.309814 2004.246826,676.189758 2002.537964,673.457214 &#10;&#9;C1995.478760,662.169556 1988.755859,650.619202 1980.950928,639.860779 &#10;&#9;C1961.322388,612.804871 1938.053467,589.042480 1913.795654,566.090088 &#10;&#9;C1867.217407,522.018188 1817.663208,481.806091 1763.826172,446.903717 &#10;&#9;C1700.200195,405.655273 1631.800537,374.921234 1559.063721,353.762848 &#10;&#9;C1490.974731,333.956421 1421.292725,320.787384 1352.349121,304.541382 &#10;&#9;C1349.794556,303.939423 1346.974365,304.464722 1342.249634,304.464722 &#10;&#9;C1369.550659,333.682983 1387.919800,366.035370 1403.534424,400.241852 &#10;&#9;C1401.522217,400.002991 1400.146484,399.279053 1399.078979,398.238831 &#10;&#9;C1377.843750,377.547211 1356.639404,356.823853 1335.438477,336.096924 &#10;&#9;C1306.342773,307.651825 1275.475342,281.257019 1243.274170,256.404053 &#10;&#9;C1180.723633,208.127563 1112.362671,170.899460 1036.599487,147.764694 &#10;&#9;C1033.945190,146.954208 1031.183838,146.494751 1026.521362,145.423401 &#10;&#9;C1028.474487,150.433212 1029.468628,153.517242 1030.840576,156.422791 &#10;&#9;C1053.463257,204.332458 1073.149170,253.470993 1092.181396,302.882782 &#10;&#9;C1095.145874,310.579315 1098.277466,318.265961 1098.023804,328.303619 &#10;&#9;C1094.098145,325.824249 1091.109863,323.964142 1088.148438,322.062256 &#10;&#9;C1061.257690,304.792419 1034.835938,286.731689 1007.360535,270.448914 &#10;&#9;C976.570679,252.202011 943.373291,239.255157 908.392578,231.181870 &#10;&#9;C900.732971,229.414078 893.084717,229.253876 883.935608,230.042938 &#10;&#9;C904.453552,259.278229 927.744812,284.779724 940.653809,316.442780 &#10;&#9;C953.558167,348.094574 963.950317,380.770538 975.829346,414.078949 &#10;&#9;C997.905701,413.247894 1020.921814,412.381470 1044.758667,411.484131 &#10;&#9;C1043.671021,413.389221 1043.489624,414.217804 1043.049805,414.391205 &#10;&#9;C1040.897461,415.239746 1038.655151,415.855804 1036.483154,416.658478 &#10;&#9;C1016.835815,423.919128 997.156616,431.097626 977.598511,438.591583 &#10;&#9;C974.719360,439.694794 972.424988,442.324371 968.417725,444.023529 &#10;&#9;C965.163208,445.554718 961.730591,446.795410 958.682556,448.663452 &#10;&#9;C935.965027,462.586090 913.195923,476.432404 890.729614,490.752411 &#10;&#9;C883.126221,495.598846 876.077332,496.699615 867.232117,494.176971 &#10;&#9;C748.204834,460.229767 629.094177,426.574310 509.989014,392.900208 &#10;&#9;C390.242279,359.044769 270.479370,325.246368 150.716705,291.447327 &#10;&#9;C148.115982,290.713348 145.432251,290.273590 142.787231,289.696594 &#10;&#9;C142.550735,290.378448 142.314255,291.060303 142.077759,291.742126 &#10;&#9;C145.483002,293.578918 148.825409,295.545105 152.302536,297.233948 &#10;&#9;C313.736572,375.642944 475.201416,453.988556 636.616882,532.435730 &#10;&#9;C696.511108,561.544006 756.298279,590.872620 816.120789,620.128296 &#10;&#9;C827.840698,625.859802 827.500854,626.106506 826.191589,639.355286 &#10;&#9;C823.671326,664.860046 820.193726,690.394775 819.795288,715.958862 &#10;&#9;C818.943604,770.606079 812.164246,824.325867 796.619751,876.620178 &#10;&#9;C780.312378,931.480713 762.403870,985.867554 745.003113,1040.400146 &#10;&#9;C729.315735,1089.563232 713.291809,1138.600708 706.755798,1190.121948 &#10;&#9;C702.488953,1223.755615 701.957764,1257.122681 709.850586,1290.394409 &#10;&#9;C717.283203,1321.725952 732.235352,1347.914429 759.252441,1366.404297 &#10;&#9;C773.152161,1375.916992 788.342346,1380.955322 805.328308,1379.988403 &#10;&#9;C820.747009,1379.110474 832.942261,1372.970825 840.097412,1358.677490 &#10;&#9;C843.672424,1351.535767 847.200928,1344.366577 850.556030,1337.119873 &#10;&#9;C855.729126,1325.946533 860.470032,1314.566040 865.889282,1303.516113 &#10;&#9;C870.932007,1293.234009 877.951904,1284.343384 887.262634,1277.488159 &#10;&#9;C891.459961,1274.397949 895.792969,1271.412720 902.243713,1271.544189 &#10;&#9;C901.647278,1274.724609 901.351501,1277.294800 900.671387,1279.758911 &#10;&#9;C897.483765,1291.308472 894.600281,1302.964722 890.836182,1314.327026 &#10;&#9;C885.502869,1330.425903 890.041748,1343.818848 901.010376,1355.624023 &#10;&#9;C910.433289,1365.765625 923.349243,1367.038330 934.216125,1358.398560 &#10;&#9;C939.342834,1354.322388 943.782593,1349.108032 947.638367,1343.763672 &#10;&#9;C955.931702,1332.268555 960.664429,1319.055298 964.000244,1305.398926 &#10;&#9;C969.528625,1282.766846 974.746033,1260.059082 980.146057,1237.395508 &#10;&#9;C988.199036,1203.598511 998.545105,1170.638916 1015.948303,1140.288818 &#10;&#9;C1040.278564,1097.858521 1075.863037,1070.228760 1123.847046,1059.749756 &#10;&#9;C1145.622070,1054.994385 1167.796509,1052.101318 1189.697876,1047.885986 &#10;&#9;C1243.692993,1037.493408 1283.425293,1008.110901 1307.153076,958.140686 &#10;&#9;C1317.701050,935.926758 1322.361816,912.081909 1324.770264,887.763550 &#10;&#9;C1324.955444,885.893738 1324.137573,883.924500 1325.128296,880.977905 &#10;&#9;C1325.618896,863.159973 1326.109375,845.342102 1326.599976,827.524170 &#10;&#9;C1327.280151,827.428528 1327.960327,827.332947 1328.640503,827.237305 &#10;&#9;C1330.468018,831.071777 1332.397461,834.861511 1334.104126,838.748962 &#10;&#9;C1339.699097,851.493042 1344.630737,864.566589 1350.889893,876.972290 &#10;&#9;C1361.119751,897.247620 1365.270508,918.789551 1365.893433,943.067078 &#10;z"/>
  <path fill="#58C7FB" opacity="1.000000" stroke="none" d="&#10;M969.860046,444.247772 &#10;&#9;C972.424988,442.324371 974.719360,439.694794 977.598511,438.591583 &#10;&#9;C997.156616,431.097626 1016.835815,423.919128 1036.483154,416.658478 &#10;&#9;C1038.655151,415.855804 1040.897461,415.239746 1043.049805,414.391205 &#10;&#9;C1043.489624,414.217804 1043.671021,413.389221 1044.758667,411.484131 &#10;&#9;C1020.921814,412.381470 997.905701,413.247894 975.829346,414.078949 &#10;&#9;C963.950317,380.770538 953.558167,348.094574 940.653809,316.442780 &#10;&#9;C927.744812,284.779724 904.453552,259.278229 883.935608,230.042938 &#10;&#9;C893.084717,229.253876 900.732971,229.414078 908.392578,231.181870 &#10;&#9;C943.373291,239.255157 976.570679,252.202011 1007.360535,270.448914 &#10;&#9;C1034.835938,286.731689 1061.257690,304.792419 1088.148438,322.062256 &#10;&#9;C1091.109863,323.964142 1094.098145,325.824249 1098.023804,328.303619 &#10;&#9;C1098.277466,318.265961 1095.145874,310.579315 1092.181396,302.882782 &#10;&#9;C1073.149170,253.470993 1053.463257,204.332458 1030.840576,156.422791 &#10;&#9;C1029.468628,153.517242 1028.474487,150.433212 1026.521362,145.423401 &#10;&#9;C1031.183838,146.494751 1033.945190,146.954208 1036.599487,147.764694 &#10;&#9;C1112.362671,170.899460 1180.723633,208.127563 1243.274170,256.404053 &#10;&#9;C1275.475342,281.257019 1306.342773,307.651825 1335.438477,336.096924 &#10;&#9;C1356.639404,356.823853 1377.843750,377.547211 1399.078979,398.238831 &#10;&#9;C1400.146484,399.279053 1401.522217,400.002991 1403.534424,400.241852 &#10;&#9;C1387.919800,366.035370 1369.550659,333.682983 1342.249634,304.464722 &#10;&#9;C1346.974365,304.464722 1349.794556,303.939423 1352.349121,304.541382 &#10;&#9;C1421.292725,320.787384 1490.974731,333.956421 1559.063721,353.762848 &#10;&#9;C1631.800537,374.921234 1700.200195,405.655273 1763.826172,446.903717 &#10;&#9;C1817.663208,481.806091 1867.217407,522.018188 1913.795654,566.090088 &#10;&#9;C1938.053467,589.042480 1961.322388,612.804871 1980.950928,639.860779 &#10;&#9;C1988.755859,650.619202 1995.478760,662.169556 2002.537964,673.457214 &#10;&#9;C2004.246826,676.189758 2005.336182,679.309814 2007.047363,682.972900 &#10;&#9;C2001.671143,684.021423 1998.607178,681.049133 1995.342651,679.343933 &#10;&#9;C1963.164673,662.536133 1931.386963,644.925598 1898.847046,628.856384 &#10;&#9;C1855.233521,607.318970 1810.590698,588.028625 1764.163696,573.217773 &#10;&#9;C1737.820068,564.813782 1711.123901,557.813110 1683.509644,554.968445 &#10;&#9;C1680.537109,554.662170 1677.533691,554.574585 1674.543579,554.558899 &#10;&#9;C1673.323486,554.552429 1672.100952,555.007874 1669.153198,555.599976 &#10;&#9;C1671.966309,557.650513 1673.470337,559.133423 1675.270752,560.000549 &#10;&#9;C1698.975220,571.415771 1722.998169,582.203674 1746.403931,594.197876 &#10;&#9;C1811.275024,627.440796 1871.768188,667.426147 1927.337524,714.636047 &#10;&#9;C1973.073853,753.492188 2012.882935,797.555786 2043.794800,849.352661 &#10;&#9;C2075.645264,902.722290 2098.567139,959.660645 2111.792725,1020.298218 &#10;&#9;C2117.664307,1047.218750 2123.100342,1074.500977 2125.281006,1101.894043 &#10;&#9;C2128.207275,1138.655273 2129.437256,1175.591431 2126.620117,1212.628052 &#10;&#9;C2122.526855,1266.439453 2111.386719,1318.558594 2093.405762,1369.314697 &#10;&#9;C2073.051514,1426.770142 2042.382202,1478.312866 2003.905273,1525.408203 &#10;&#9;C1980.435791,1554.134644 1954.463867,1580.376221 1926.319092,1604.481934 &#10;&#9;C1922.170654,1608.034912 1918.592896,1613.139771 1910.704346,1611.626953 &#10;&#9;C1890.819946,1587.910645 1872.140259,1564.893188 1853.530762,1541.819214 &#10;&#9;C1702.133911,1354.102173 1550.782471,1166.348633 1399.292603,978.706665 &#10;&#9;C1388.852539,965.775146 1377.409790,953.653198 1366.433350,941.154724 &#10;&#9;C1365.270508,918.789551 1361.119751,897.247620 1350.889893,876.972290 &#10;&#9;C1344.630737,864.566589 1339.699097,851.493042 1334.104126,838.748962 &#10;&#9;C1332.397461,834.861511 1330.468018,831.071777 1328.640503,827.237305 &#10;&#9;C1327.960327,827.332947 1327.280151,827.428528 1326.599976,827.524170 &#10;&#9;C1326.109375,845.342102 1325.618896,863.159973 1323.804932,881.340881 &#10;&#9;C1316.154053,874.439514 1309.585571,867.369873 1303.534912,859.881958 &#10;&#9;C1195.166138,725.772644 1086.849365,591.621277 978.591003,457.422791 &#10;&#9;C975.297546,453.340240 972.753479,448.653046 969.860046,444.247772 &#10;M1607.540771,928.611084 &#10;&#9;C1605.416992,930.220703 1603.464966,932.157654 1601.137085,933.378174 &#10;&#9;C1594.320679,936.952393 1593.645020,941.827515 1595.451782,949.068054 &#10;&#9;C1598.585571,961.626465 1600.385376,974.526550 1602.492798,987.324829 &#10;&#9;C1602.932739,989.997192 1602.279175,992.849548 1602.049561,997.101929 &#10;&#9;C1585.542236,986.712463 1570.457520,977.218323 1555.260986,967.653931 &#10;&#9;C1524.812866,990.581604 1494.559326,1012.478943 1463.629639,1036.277222 &#10;&#9;C1474.549805,1041.329590 1483.524780,1045.626099 1492.615112,1049.662354 &#10;&#9;C1530.045532,1066.281738 1567.430054,1083.009766 1605.018799,1099.264404 &#10;&#9;C1614.884888,1103.530762 1620.586304,1109.376709 1621.243286,1120.681641 &#10;&#9;C1622.187866,1136.939941 1624.337280,1153.128662 1625.989990,1169.345215 &#10;&#9;C1628.074585,1189.800293 1630.176880,1210.253784 1632.258911,1230.584351 &#10;&#9;C1633.461670,1230.584351 1634.297485,1230.851074 1634.713013,1230.545898 &#10;&#9;C1650.811401,1218.717651 1666.990234,1206.990723 1682.795532,1194.781006 &#10;&#9;C1684.911621,1193.146240 1686.017944,1189.037354 1686.023315,1186.071411 &#10;&#9;C1686.036011,1179.105957 1685.008423,1172.144409 1684.566284,1165.170776 &#10;&#9;C1683.863159,1154.077881 1683.293823,1142.976685 1682.605713,1130.774780 &#10;&#9;C1686.617798,1132.054810 1689.142212,1132.706421 1691.550171,1133.654175 &#10;&#9;C1703.942505,1138.530762 1716.557373,1142.946411 1728.587280,1148.602051 &#10;&#9;C1736.387817,1152.269287 1742.331055,1151.147705 1748.793823,1146.153076 &#10;&#9;C1763.286865,1134.952637 1778.084473,1124.146729 1792.701294,1113.105225 &#10;&#9;C1795.224243,1111.199341 1797.467773,1108.923584 1800.730835,1106.028809 &#10;&#9;C1795.231445,1103.149414 1790.918213,1100.765747 1786.499268,1098.597412 &#10;&#9;C1754.810547,1083.047852 1723.148315,1067.442749 1691.357544,1052.104126 &#10;&#9;C1684.793945,1048.937134 1680.772949,1044.842285 1680.029053,1037.201416 &#10;&#9;C1677.513550,1011.368103 1674.646973,985.568359 1671.817383,959.766418 &#10;&#9;C1669.676514,940.246216 1667.518921,920.725586 1665.055176,901.244873 &#10;&#9;C1664.552490,897.269409 1665.309326,892.546265 1660.833740,889.012512 &#10;&#9;C1643.386841,901.999512 1626.052979,914.902344 1607.540771,928.611084 &#10;z"/>
  <path fill="#2D2D35" opacity="1.000000" stroke="none" d="&#10;M1366.163330,942.110901 &#10;&#9;C1377.409790,953.653198 1388.852539,965.775146 1399.292603,978.706665 &#10;&#9;C1550.782471,1166.348633 1702.133911,1354.102173 1853.530762,1541.819214 &#10;&#9;C1872.140259,1564.893188 1890.819946,1587.910645 1910.018188,1611.298340 &#10;&#9;C1909.562622,1613.844849 1909.112061,1616.677002 1907.453735,1618.141479 &#10;&#9;C1899.969604,1624.750854 1892.475098,1631.433105 1884.388306,1637.262085 &#10;&#9;C1816.200684,1686.411011 1742.279053,1725.291138 1664.865845,1757.470947 &#10;&#9;C1606.456299,1781.751099 1547.366577,1804.396484 1488.560303,1827.720581 &#10;&#9;C1440.265625,1846.875366 1391.929077,1865.924438 1345.836182,1890.118774 &#10;&#9;C1342.382568,1891.931763 1338.685547,1893.280884 1334.526245,1895.096924 &#10;&#9;C1332.696289,1885.961914 1335.183105,1878.298218 1336.914673,1870.681274 &#10;&#9;C1345.463623,1833.074585 1360.874512,1798.056519 1377.762939,1763.614136 &#10;&#9;C1400.608887,1717.021973 1429.319946,1674.218384 1461.504272,1633.635620 &#10;&#9;C1467.230469,1626.415283 1472.454468,1618.796753 1479.116089,1609.719238 &#10;&#9;C1468.712769,1611.809448 1461.398926,1615.772827 1454.748535,1620.511963 &#10;&#9;C1436.846680,1633.269043 1418.723511,1645.818237 1401.714722,1659.707031 &#10;&#9;C1344.767700,1706.207886 1299.613159,1762.691406 1263.030518,1826.234009 &#10;&#9;C1214.819702,1909.974365 1183.448364,1999.683838 1167.715576,2094.949219 &#10;&#9;C1166.305542,2103.487549 1164.623413,2111.984619 1162.866577,2120.459473 &#10;&#9;C1162.147827,2123.927246 1160.894287,2127.284424 1159.337158,2132.536377 &#10;&#9;C1156.284180,2128.682129 1154.001343,2126.372070 1152.376831,2123.666504 &#10;&#9;C1104.716064,2044.281494 1065.635132,1960.885010 1036.756348,1872.886963 &#10;&#9;C1018.434204,1817.056763 1006.396301,1759.758667 999.554749,1701.354736 &#10;&#9;C993.791687,1652.157593 992.794189,1602.827026 998.326050,1553.710815 &#10;&#9;C1011.442993,1437.248657 1055.667969,1334.608521 1138.413452,1250.259766 &#10;&#9;C1154.214478,1234.152588 1172.423706,1220.347168 1189.960449,1206.016479 &#10;&#9;C1224.296021,1177.958008 1258.732788,1150.044922 1289.372070,1117.829346 &#10;&#9;C1306.669556,1099.641846 1321.706665,1079.766113 1334.570190,1058.205200 &#10;&#9;C1353.910522,1025.788696 1364.894775,990.967041 1365.429688,953.049316 &#10;&#9;C1365.476685,949.720398 1365.733887,946.394409 1366.163330,942.110901 &#10;M1431.511230,1349.880493 &#10;&#9;C1434.125610,1350.368286 1436.721069,1351.023560 1439.357056,1351.319092 &#10;&#9;C1492.723267,1357.302856 1534.868774,1336.946655 1568.364136,1296.302612 &#10;&#9;C1571.498657,1292.499023 1571.600220,1288.683228 1569.402466,1284.294800 &#10;&#9;C1563.586914,1272.682861 1558.057739,1260.927856 1552.318359,1249.277100 &#10;&#9;C1551.680786,1247.982666 1550.423584,1246.993530 1549.097168,1245.447144 &#10;&#9;C1545.905151,1249.811890 1543.313599,1253.669922 1540.406738,1257.273438 &#10;&#9;C1530.400879,1269.677856 1517.712891,1277.648804 1501.795288,1280.057739 &#10;&#9;C1469.033936,1285.015503 1432.591919,1252.385620 1442.922607,1209.434204 &#10;&#9;C1445.913086,1197.001343 1452.895508,1186.958862 1462.965332,1179.187500 &#10;&#9;C1471.092896,1172.915405 1479.481323,1166.981567 1488.540283,1160.319214 &#10;&#9;C1466.251343,1133.404053 1444.245117,1106.830444 1422.149536,1080.148804 &#10;&#9;C1419.851318,1081.046875 1418.275879,1081.509277 1416.841187,1082.245972 &#10;&#9;C1387.978760,1097.064697 1362.855347,1116.494385 1343.584961,1142.832520 &#10;&#9;C1323.559814,1170.201904 1315.665649,1200.683594 1321.458008,1234.358643 &#10;&#9;C1330.087524,1284.527954 1375.665161,1338.427368 1431.511230,1349.880493 &#10;z"/>
  <path fill="#2D2D35" opacity="1.000000" stroke="none" d="&#10;M969.138916,444.135651 &#10;&#9;C972.753479,448.653046 975.297546,453.340240 978.591003,457.422791 &#10;&#9;C1086.849365,591.621277 1195.166138,725.772644 1303.534912,859.881958 &#10;&#9;C1309.585571,867.369873 1316.154053,874.439514 1323.133545,881.852661 &#10;&#9;C1324.137573,883.924500 1324.955444,885.893738 1324.770264,887.763550 &#10;&#9;C1322.361816,912.081909 1317.701050,935.926758 1307.153076,958.140686 &#10;&#9;C1283.425293,1008.110901 1243.692993,1037.493408 1189.697876,1047.885986 &#10;&#9;C1167.796509,1052.101318 1145.622070,1054.994385 1123.847046,1059.749756 &#10;&#9;C1075.863037,1070.228760 1040.278564,1097.858521 1015.948303,1140.288818 &#10;&#9;C998.545105,1170.638916 988.199036,1203.598511 980.146057,1237.395508 &#10;&#9;C974.746033,1260.059082 969.528625,1282.766846 964.000244,1305.398926 &#10;&#9;C960.664429,1319.055298 955.931702,1332.268555 947.638367,1343.763672 &#10;&#9;C943.782593,1349.108032 939.342834,1354.322388 934.216125,1358.398560 &#10;&#9;C923.349243,1367.038330 910.433289,1365.765625 901.010376,1355.624023 &#10;&#9;C890.041748,1343.818848 885.502869,1330.425903 890.836182,1314.327026 &#10;&#9;C894.600281,1302.964722 897.483765,1291.308472 900.671387,1279.758911 &#10;&#9;C901.351501,1277.294800 901.647278,1274.724609 902.243713,1271.544189 &#10;&#9;C895.792969,1271.412720 891.459961,1274.397949 887.262634,1277.488159 &#10;&#9;C877.951904,1284.343384 870.932007,1293.234009 865.889282,1303.516113 &#10;&#9;C860.470032,1314.566040 855.729126,1325.946533 850.556030,1337.119873 &#10;&#9;C847.200928,1344.366577 843.672424,1351.535767 840.097412,1358.677490 &#10;&#9;C832.942261,1372.970825 820.747009,1379.110474 805.328308,1379.988403 &#10;&#9;C788.342346,1380.955322 773.152161,1375.916992 759.252441,1366.404297 &#10;&#9;C732.235352,1347.914429 717.283203,1321.725952 709.850586,1290.394409 &#10;&#9;C701.957764,1257.122681 702.488953,1223.755615 706.755798,1190.121948 &#10;&#9;C713.291809,1138.600708 729.315735,1089.563232 745.003113,1040.400146 &#10;&#9;C762.403870,985.867554 780.312378,931.480713 796.619751,876.620178 &#10;&#9;C812.164246,824.325867 818.943604,770.606079 819.795288,715.958862 &#10;&#9;C820.193726,690.394775 823.671326,664.860046 826.191589,639.355286 &#10;&#9;C827.500854,626.106506 827.840698,625.859802 816.120789,620.128296 &#10;&#9;C756.298279,590.872620 696.511108,561.544006 636.616882,532.435730 &#10;&#9;C475.201416,453.988556 313.736572,375.642944 152.302536,297.233948 &#10;&#9;C148.825409,295.545105 145.483002,293.578918 142.077759,291.742126 &#10;&#9;C142.314255,291.060303 142.550735,290.378448 142.787231,289.696594 &#10;&#9;C145.432251,290.273590 148.115982,290.713348 150.716705,291.447327 &#10;&#9;C270.479370,325.246368 390.242279,359.044769 509.989014,392.900208 &#10;&#9;C629.094177,426.574310 748.204834,460.229767 867.232117,494.176971 &#10;&#9;C876.077332,496.699615 883.126221,495.598846 890.729614,490.752411 &#10;&#9;C913.195923,476.432404 935.965027,462.586090 958.682556,448.663452 &#10;&#9;C961.730591,446.795410 965.163208,445.554718 969.138916,444.135651 &#10;z"/>
  <path fill="#2D3038" opacity="1.000000" stroke="none" d="&#10;M1608.130005,928.208130 &#10;&#9;C1626.052979,914.902344 1643.386841,901.999512 1660.833740,889.012512 &#10;&#9;C1665.309326,892.546265 1664.552490,897.269409 1665.055176,901.244873 &#10;&#9;C1667.518921,920.725586 1669.676514,940.246216 1671.817383,959.766418 &#10;&#9;C1674.646973,985.568359 1677.513550,1011.368103 1680.029053,1037.201416 &#10;&#9;C1680.772949,1044.842285 1684.793945,1048.937134 1691.357544,1052.104126 &#10;&#9;C1723.148315,1067.442749 1754.810547,1083.047852 1786.499268,1098.597412 &#10;&#9;C1790.918213,1100.765747 1795.231445,1103.149414 1800.730835,1106.028809 &#10;&#9;C1797.467773,1108.923584 1795.224243,1111.199341 1792.701294,1113.105225 &#10;&#9;C1778.084473,1124.146729 1763.286865,1134.952637 1748.793823,1146.153076 &#10;&#9;C1742.331055,1151.147705 1736.387817,1152.269287 1728.587280,1148.602051 &#10;&#9;C1716.557373,1142.946411 1703.942505,1138.530762 1691.550171,1133.654175 &#10;&#9;C1689.142212,1132.706421 1686.617798,1132.054810 1682.605713,1130.774780 &#10;&#9;C1683.293823,1142.976685 1683.863159,1154.077881 1684.566284,1165.170776 &#10;&#9;C1685.008423,1172.144409 1686.036011,1179.105957 1686.023315,1186.071411 &#10;&#9;C1686.017944,1189.037354 1684.911621,1193.146240 1682.795532,1194.781006 &#10;&#9;C1666.990234,1206.990723 1650.811401,1218.717651 1634.713013,1230.545898 &#10;&#9;C1634.297485,1230.851074 1633.461670,1230.584351 1632.258911,1230.584351 &#10;&#9;C1630.176880,1210.253784 1628.074585,1189.800293 1625.989990,1169.345215 &#10;&#9;C1624.337280,1153.128662 1622.187866,1136.939941 1621.243286,1120.681641 &#10;&#9;C1620.586304,1109.376709 1614.884888,1103.530762 1605.018799,1099.264404 &#10;&#9;C1567.430054,1083.009766 1530.045532,1066.281738 1492.615112,1049.662354 &#10;&#9;C1483.524780,1045.626099 1474.549805,1041.329590 1463.629639,1036.277222 &#10;&#9;C1494.559326,1012.478943 1524.812866,990.581604 1555.260986,967.653931 &#10;&#9;C1570.457520,977.218323 1585.542236,986.712463 1602.049561,997.101929 &#10;&#9;C1602.279175,992.849548 1602.932739,989.997192 1602.492798,987.324829 &#10;&#9;C1600.385376,974.526550 1598.585571,961.626465 1595.451782,949.068054 &#10;&#9;C1593.645020,941.827515 1594.320679,936.952393 1601.137085,933.378174 &#10;&#9;C1603.464966,932.157654 1605.416992,930.220703 1608.130005,928.208130 &#10;z"/>
  <path fill="#59C5F8" opacity="1.000000" stroke="none" d="&#10;M1430.675537,1349.733887 &#10;&#9;C1375.665161,1338.427368 1330.087524,1284.527954 1321.458008,1234.358643 &#10;&#9;C1315.665649,1200.683594 1323.559814,1170.201904 1343.584961,1142.832520 &#10;&#9;C1362.855347,1116.494385 1387.978760,1097.064697 1416.841187,1082.245972 &#10;&#9;C1418.275879,1081.509277 1419.851318,1081.046875 1422.149536,1080.148804 &#10;&#9;C1444.245117,1106.830444 1466.251343,1133.404053 1488.540283,1160.319214 &#10;&#9;C1479.481323,1166.981567 1471.092896,1172.915405 1462.965332,1179.187500 &#10;&#9;C1452.895508,1186.958862 1445.913086,1197.001343 1442.922607,1209.434204 &#10;&#9;C1432.591919,1252.385620 1469.033936,1285.015503 1501.795288,1280.057739 &#10;&#9;C1517.712891,1277.648804 1530.400879,1269.677856 1540.406738,1257.273438 &#10;&#9;C1543.313599,1253.669922 1545.905151,1249.811890 1549.097168,1245.447144 &#10;&#9;C1550.423584,1246.993530 1551.680786,1247.982666 1552.318359,1249.277100 &#10;&#9;C1558.057739,1260.927856 1563.586914,1272.682861 1569.402466,1284.294800 &#10;&#9;C1571.600220,1288.683228 1571.498657,1292.499023 1568.364136,1296.302612 &#10;&#9;C1534.868774,1336.946655 1492.723267,1357.302856 1439.357056,1351.319092 &#10;&#9;C1436.721069,1351.023560 1434.125610,1350.368286 1430.675537,1349.733887 &#10;z"/>
</svg>