<svg version="1.1" id="Layer_1" xmlns="http://www.w3.org/2000/svg" xmlns:xlink="http://www.w3.org/1999/xlink" x="0px" y="0px"
	 width="100%" viewBox="0 0 2022 2022" enable-background="new 0 0 2022 2022" xml:space="preserve" >
<path fill="none" opacity="0" stroke="none" 
	d="
M2023.000000,709.000000 
	C2023.000000,1147.333374 2023.000000,1585.166626 2023.000000,2023.000000 
	C1349.000000,2023.000000 675.000000,2023.000000 1.000000,2023.000000 
	C1.000000,1349.000000 1.000000,675.000000 1.000000,1.000000 
	C675.000000,1.000000 1349.000000,1.000000 2023.000000,1.000000 
	C2023.000000,236.833328 2023.000000,472.666656 2023.000000,709.000000 
M1784.791260,1487.069824 
	C1784.931763,1486.965088 1785.072144,1486.860352 1785.921875,1486.873291 
	C1788.752563,1485.263794 1791.896484,1484.032227 1794.365112,1481.985718 
	C1817.741943,1462.606934 1839.531494,1441.565918 1859.695923,1418.856689 
	C1889.439331,1385.359497 1915.786011,1349.391235 1936.581787,1309.668701 
	C1969.813354,1246.192017 1989.961792,1178.657837 1997.213257,1107.346802 
	C1998.525513,1094.442383 1999.666382,1081.491089 2000.107178,1068.534790 
	C2000.716919,1050.612671 2001.093018,1032.652344 2000.629150,1014.732605 
	C2000.189819,997.759888 1999.098755,980.757019 1997.249146,963.882019 
	C1995.657837,949.364441 1992.739258,934.982117 1990.149414,920.586365 
	C1984.108398,887.008423 1975.215576,854.192078 1963.611206,822.100403 
	C1947.904785,778.664551 1927.217773,737.759155 1901.536743,699.379578 
	C1873.617432,657.654968 1839.336060,621.633057 1801.305786,589.169922 
	C1745.204102,541.280762 1683.987427,500.883026 1618.383545,467.242065 
	C1594.244873,454.863983 1569.472778,443.721405 1545.000000,431.993591 
	C1543.762207,431.400452 1542.623291,430.601318 1540.187500,429.155914 
	C1543.265503,428.966858 1544.842896,428.821075 1546.422852,428.780334 
	C1568.199585,428.218781 1589.009033,433.803436 1609.793335,439.145355 
	C1639.523804,446.786560 1668.491089,456.898438 1696.599365,469.148895 
	C1728.497192,483.051056 1760.284058,497.294281 1791.503052,512.642578 
	C1820.189819,526.746094 1848.055054,542.520020 1876.295410,557.533569 
	C1877.519531,558.184387 1878.874390,558.589355 1881.339722,559.579102 
	C1880.301514,557.094666 1879.892700,555.727966 1879.201538,554.523193 
	C1873.816528,545.136536 1868.791260,535.510498 1862.880493,526.464417 
	C1841.219849,493.313171 1813.735718,465.265198 1785.081543,438.219299 
	C1751.609619,406.626190 1716.481445,377.073608 1679.426514,349.752441 
	C1595.696167,288.016968 1503.418945,244.243439 1402.566040,219.124725 
	C1342.440063,204.149628 1281.848877,191.042068 1221.456665,177.138901 
	C1218.918823,176.554657 1216.278687,176.415588 1213.686157,176.069092 
	C1239.615601,203.285446 1257.187866,235.225922 1274.086060,267.603180 
	C1275.159424,269.660095 1275.520874,272.088623 1276.213623,274.344269 
	C1275.761597,274.507385 1275.309570,274.670471 1274.857544,274.833588 
	C1274.124512,274.214172 1273.343140,273.643433 1272.665771,272.968201 
	C1258.513184,258.858887 1244.488525,244.619141 1230.205688,230.643082 
	C1198.526733,199.644592 1166.083496,169.490875 1131.359619,141.871872 
	C1092.944580,111.317131 1052.492065,83.912262 1008.810852,61.351082 
	C975.409241,44.099304 940.241089,31.340054 904.687744,19.496006 
	C902.907898,18.903101 901.022583,18.626745 898.136475,17.960701 
	C899.910095,22.416552 901.109924,25.839163 902.608521,29.125526 
	C909.235657,43.658894 916.440125,57.950111 922.533264,72.701668 
	C937.320801,108.502228 951.721436,144.464523 965.990540,180.475525 
	C968.659790,187.212097 969.991821,194.478500 971.940979,201.500381 
	C971.516174,201.739441 971.091309,201.978500 970.666504,202.217560 
	C965.353149,198.574081 960.019714,194.959473 954.729736,191.282364 
	C921.339539,168.072556 887.574097,145.484406 850.381897,128.612015 
	C826.085022,117.589668 801.219727,108.187889 774.824890,103.562218 
	C768.839661,102.513306 762.638550,102.695847 756.536865,102.311554 
	C764.277161,114.871552 772.237183,125.935394 780.430054,136.824066 
	C798.043762,160.233185 813.291931,185.009552 822.757202,212.865753 
	C830.595825,235.934647 837.704529,259.256165 844.812805,282.564484 
	C846.142151,286.923706 848.046082,288.205353 852.467773,287.953094 
	C871.904968,286.844238 891.359802,286.038422 910.811890,285.206848 
	C913.091919,285.109344 915.394287,285.532043 917.686279,285.713593 
	C917.660400,286.260559 917.634521,286.807556 917.608643,287.354553 
	C916.245117,287.857697 914.895630,288.403473 913.515930,288.857391 
	C899.149841,293.583679 884.596313,297.813873 870.471191,303.173828 
	C860.435242,306.982025 850.975220,312.308044 840.479187,316.850128 
	C838.852295,317.671356 837.155457,318.378937 835.608948,319.330750 
	C810.361389,334.869202 785.103943,350.392120 759.923340,366.038544 
	C754.650513,369.314911 749.498352,370.226349 743.349548,368.483215 
	C590.174866,325.059906 436.964569,281.762482 283.761505,238.439484 
	C195.803696,213.566635 107.848686,188.683823 19.883162,163.838242 
	C17.789719,163.246948 15.586622,163.043884 13.434669,162.659729 
	C13.238808,163.147766 13.042946,163.635803 12.847084,164.123840 
	C15.590007,165.795746 18.216505,167.707138 21.092495,169.105316 
	C195.804245,254.042191 370.547424,338.914398 545.259705,423.850189 
	C594.255920,447.669495 643.173340,471.651031 692.109924,495.592834 
	C699.401062,499.159973 699.931885,500.886536 698.980103,508.964478 
	C696.727173,528.085266 694.172668,547.199158 692.843506,566.392212 
	C691.454407,586.450806 691.674255,606.615479 690.619751,626.703796 
	C689.015625,657.262268 683.966614,687.362122 677.373962,717.211487 
	C668.360901,758.018982 655.075928,797.582703 642.349548,837.308777 
	C627.690857,883.066895 612.774109,928.744690 598.484619,974.617920 
	C587.349609,1010.364563 580.049927,1046.979004 576.825928,1084.306763 
	C575.799805,1096.186646 575.056030,1108.244751 575.921875,1120.094360 
	C576.969360,1134.430908 579.158447,1148.779541 582.100098,1162.862549 
	C588.739075,1194.646729 604.119568,1221.141113 631.376099,1239.904663 
	C645.864075,1249.878174 661.709290,1254.987183 679.415771,1253.586182 
	C694.477173,1252.394531 706.105286,1245.844238 712.967834,1231.941650 
	C716.059021,1225.679565 719.208862,1219.443359 722.150818,1213.111084 
	C728.098816,1200.308716 733.513428,1187.240112 739.921082,1174.675415 
	C745.593933,1163.551514 753.709167,1154.221802 764.789429,1147.977173 
	C767.680847,1146.347656 771.007385,1145.489990 775.040894,1143.926270 
	C774.640442,1146.203003 774.553040,1147.150757 774.303101,1148.053711 
	C770.534973,1161.669556 767.155518,1175.410278 762.858704,1188.857788 
	C757.286377,1206.297607 763.658813,1219.882446 775.818359,1231.530396 
	C782.607239,1238.033569 791.315308,1239.815796 799.945923,1235.835083 
	C805.080750,1233.466675 809.887634,1229.703857 813.844360,1225.604858 
	C822.519409,1216.618164 828.710693,1205.734619 831.955322,1193.786621 
	C839.163330,1167.243774 845.756775,1140.526123 852.147827,1113.771484 
	C859.689026,1082.201660 868.933655,1051.286499 883.930542,1022.318176 
	C908.423340,975.007446 945.834351,944.080566 998.353943,932.893250 
	C1019.354675,928.419861 1040.713135,925.654968 1061.821899,921.654053 
	C1114.857422,911.601807 1154.269287,883.093506 1178.533936,834.470947 
	C1188.131348,815.239319 1192.823608,794.522705 1196.210449,773.487610 
	C1197.087646,768.040161 1196.953613,762.429932 1197.820435,756.384155 
	C1198.371826,737.716431 1198.923340,719.048645 1199.474731,700.380920 
	C1201.394775,701.912170 1202.441406,703.571716 1203.228516,705.346375 
	C1211.167480,723.244934 1219.548218,740.969421 1226.788208,759.147766 
	C1231.043579,769.831970 1233.791992,781.164429 1236.596069,792.361084 
	C1238.397217,799.552551 1239.067749,807.027161 1239.392944,813.982422 
	C1238.793945,816.200256 1237.662964,818.421387 1237.676636,820.635315 
	C1237.857422,849.423584 1232.919556,877.156738 1221.248535,903.598877 
	C1204.514526,941.511597 1179.885010,973.766663 1150.577271,1002.707642 
	C1121.832520,1031.092651 1090.391724,1056.347168 1059.246948,1081.975830 
	C1040.738892,1097.206055 1021.995605,1112.374634 1005.133850,1129.336182 
	C966.424622,1168.274292 937.704285,1214.277100 914.753174,1263.938232 
	C891.481567,1314.293091 877.667297,1367.398071 870.944580,1422.276611 
	C868.425659,1442.838867 868.202637,1463.710815 867.529114,1484.460938 
	C867.054138,1499.091187 866.872253,1513.801270 867.838257,1528.390991 
	C869.174622,1548.574219 871.076294,1568.767700 873.900146,1588.792480 
	C877.319336,1613.038818 881.191345,1637.273193 886.207458,1661.232178 
	C900.451904,1729.268921 924.269104,1794.130249 952.044678,1857.717407 
	C973.266235,1906.300293 998.756409,1952.569946 1025.322144,1998.318115 
	C1026.869019,2000.982056 1029.181274,2003.201416 1031.877075,2006.544922 
	C1033.217896,2002.198242 1034.532959,1998.994019 1035.182739,1995.660156 
	C1040.061401,1970.628906 1044.043091,1945.396118 1049.743774,1920.556641 
	C1065.639771,1851.293213 1089.661499,1785.010376 1123.247803,1722.193481 
	C1166.988647,1640.384644 1223.417114,1569.453613 1298.637329,1514.311157 
	C1312.863159,1503.882446 1326.660767,1492.730835 1343.104980,1485.744751 
	C1345.227905,1484.842651 1347.489746,1484.267578 1349.687134,1483.541138 
	C1349.948242,1483.938354 1350.209229,1484.335571 1350.470215,1484.732788 
	C1344.834839,1492.331665 1339.406738,1500.095093 1333.529663,1507.502319 
	C1301.224731,1548.218018 1272.479004,1591.211548 1249.646606,1638.003418 
	C1232.401733,1673.344482 1216.595215,1709.244141 1208.445557,1747.985107 
	C1207.010132,1754.808594 1206.216187,1761.766846 1204.930542,1769.900391 
	C1210.693604,1767.303833 1214.959961,1765.489502 1219.133911,1763.483154 
	C1238.201416,1754.317627 1256.806641,1744.021973 1276.371704,1736.090088 
	C1348.321167,1706.921387 1420.618408,1678.611694 1492.722900,1649.823975 
	C1564.932983,1620.994263 1635.503540,1588.743896 1701.706299,1547.649780 
	C1729.301514,1530.520264 1757.029419,1513.492798 1780.932861,1491.155762 
	C1782.218384,1489.954346 1783.165894,1488.391113 1784.791260,1487.069824 
z"/>
<path fill="#58C7FB" opacity="1.000000" stroke="none" 
	d="
M1240.245117,814.374878 
	C1239.067749,807.027161 1238.397217,799.552551 1236.596069,792.361084 
	C1233.791992,781.164429 1231.043579,769.831970 1226.788208,759.147766 
	C1219.548218,740.969421 1211.167480,723.244934 1203.228516,705.346375 
	C1202.441406,703.571716 1201.394775,701.912170 1199.474731,700.380920 
	C1198.923340,719.048645 1198.371826,737.716431 1197.281738,756.594971 
	C1193.813110,753.860962 1190.606323,751.141418 1187.997925,747.934998 
	C1169.496338,725.190979 1151.124023,702.341919 1132.698120,679.536255 
	C1083.805908,619.022827 1034.903198,558.517944 986.013306,498.002716 
	C948.954041,452.131348 911.839172,406.304565 874.896729,360.339264 
	C863.435120,346.078247 852.457397,331.428406 841.258118,316.956604 
	C850.975220,312.308044 860.435242,306.982025 870.471191,303.173828 
	C884.596313,297.813873 899.149841,293.583679 913.515930,288.857391 
	C914.895630,288.403473 916.245117,287.857697 917.608643,287.354553 
	C917.634521,286.807556 917.660400,286.260559 917.686279,285.713593 
	C915.394287,285.532043 913.091919,285.109344 910.811890,285.206848 
	C891.359802,286.038422 871.904968,286.844238 852.467773,287.953094 
	C848.046082,288.205353 846.142151,286.923706 844.812805,282.564484 
	C837.704529,259.256165 830.595825,235.934647 822.757202,212.865753 
	C813.291931,185.009552 798.043762,160.233185 780.430054,136.824066 
	C772.237183,125.935394 764.277161,114.871552 756.536865,102.311554 
	C762.638550,102.695847 768.839661,102.513306 774.824890,103.562218 
	C801.219727,108.187889 826.085022,117.589668 850.381897,128.612015 
	C887.574097,145.484406 921.339539,168.072556 954.729736,191.282364 
	C960.019714,194.959473 965.353149,198.574081 970.666504,202.217560 
	C971.091309,201.978500 971.516174,201.739441 971.940979,201.500381 
	C969.991821,194.478500 968.659790,187.212097 965.990540,180.475525 
	C951.721436,144.464523 937.320801,108.502228 922.533264,72.701668 
	C916.440125,57.950111 909.235657,43.658894 902.608521,29.125526 
	C901.109924,25.839163 899.910095,22.416552 898.136475,17.960701 
	C901.022583,18.626745 902.907898,18.903101 904.687744,19.496006 
	C940.241089,31.340054 975.409241,44.099304 1008.810852,61.351082 
	C1052.492065,83.912262 1092.944580,111.317131 1131.359619,141.871872 
	C1166.083496,169.490875 1198.526733,199.644592 1230.205688,230.643082 
	C1244.488525,244.619141 1258.513184,258.858887 1272.665771,272.968201 
	C1273.343140,273.643433 1274.124512,274.214172 1274.857544,274.833588 
	C1275.309570,274.670471 1275.761597,274.507385 1276.213623,274.344269 
	C1275.520874,272.088623 1275.159424,269.660095 1274.086060,267.603180 
	C1257.187866,235.225922 1239.615601,203.285446 1213.686157,176.069092 
	C1216.278687,176.415588 1218.918823,176.554657 1221.456665,177.138901 
	C1281.848877,191.042068 1342.440063,204.149628 1402.566040,219.124725 
	C1503.418945,244.243439 1595.696167,288.016968 1679.426514,349.752441 
	C1716.481445,377.073608 1751.609619,406.626190 1785.081543,438.219299 
	C1813.735718,465.265198 1841.219849,493.313171 1862.880493,526.464417 
	C1868.791260,535.510498 1873.816528,545.136536 1879.201538,554.523193 
	C1879.892700,555.727966 1880.301514,557.094666 1881.339722,559.579102 
	C1878.874390,558.589355 1877.519531,558.184387 1876.295410,557.533569 
	C1848.055054,542.520020 1820.189819,526.746094 1791.503052,512.642578 
	C1760.284058,497.294281 1728.497192,483.051056 1696.599365,469.148895 
	C1668.491089,456.898438 1639.523804,446.786560 1609.793335,439.145355 
	C1589.009033,433.803436 1568.199585,428.218781 1546.422852,428.780334 
	C1544.842896,428.821075 1543.265503,428.966858 1540.187500,429.155914 
	C1542.623291,430.601318 1543.762207,431.400452 1545.000000,431.993591 
	C1569.472778,443.721405 1594.244873,454.863983 1618.383545,467.242065 
	C1683.987427,500.883026 1745.204102,541.280762 1801.305786,589.169922 
	C1839.336060,621.633057 1873.617432,657.654968 1901.536743,699.379578 
	C1927.217773,737.759155 1947.904785,778.664551 1963.611206,822.100403 
	C1975.215576,854.192078 1984.108398,887.008423 1990.149414,920.586365 
	C1992.739258,934.982117 1995.657837,949.364441 1997.249146,963.882019 
	C1999.098755,980.757019 2000.189819,997.759888 2000.629150,1014.732605 
	C2001.093018,1032.652344 2000.716919,1050.612671 2000.107178,1068.534790 
	C1999.666382,1081.491089 1998.525513,1094.442383 1997.213257,1107.346802 
	C1989.961792,1178.657837 1969.813354,1246.192017 1936.581787,1309.668701 
	C1915.786011,1349.391235 1889.439331,1385.359497 1859.695923,1418.856689 
	C1839.531494,1441.565918 1817.741943,1462.606934 1794.365112,1481.985718 
	C1791.896484,1484.032227 1788.752563,1485.263794 1785.468018,1486.496094 
	C1784.345703,1484.972900 1783.812134,1483.718018 1782.987915,1482.697998 
	C1774.231079,1471.860718 1765.510986,1460.991699 1756.597900,1450.283813 
	C1752.847290,1445.778198 1748.661987,1441.634644 1744.659790,1437.297607 
	C1744.645264,1437.268555 1744.580811,1437.276001 1744.700928,1436.927002 
	C1744.581299,1435.978149 1744.469727,1435.275513 1744.082764,1434.793579 
	C1737.055542,1426.037720 1730.090942,1417.228638 1722.903687,1408.605469 
	C1719.047119,1403.978394 1714.795654,1399.680420 1710.699219,1395.200439 
	C1710.676025,1395.166992 1710.678589,1395.248535 1710.768311,1394.901245 
	C1709.472290,1393.123291 1708.086426,1391.692505 1706.686279,1390.192383 
	C1706.671875,1390.123047 1706.646851,1390.262573 1706.744873,1389.916504 
	C1705.454956,1388.142090 1704.067017,1386.713989 1702.670166,1385.210449 
	C1702.661377,1385.135254 1702.619751,1385.281006 1702.722656,1384.934814 
	C1701.437866,1383.158203 1700.050171,1381.727905 1698.653320,1380.206909 
	C1698.644043,1380.116211 1698.610840,1380.295532 1698.712402,1379.947021 
	C1697.123779,1377.797241 1695.433350,1375.995850 1693.790649,1374.230469 
	C1693.838257,1374.266479 1693.723267,1374.234131 1693.797974,1373.885254 
	C1692.487549,1372.098389 1691.102295,1370.660400 1689.739380,1369.253418 
	C1689.761597,1369.284302 1689.691284,1369.254761 1689.772583,1368.898438 
	C1687.132446,1365.445068 1684.411011,1362.348145 1681.698853,1359.274414 
	C1681.708130,1359.297607 1681.661133,1359.280029 1681.747559,1358.930298 
	C1680.443481,1357.146729 1679.052979,1355.712891 1677.679565,1354.172607 
	C1677.696533,1354.066040 1677.711182,1354.281250 1677.712158,1353.992676 
	C1677.400391,1353.520752 1677.087646,1353.337402 1676.842896,1353.173828 
	C1676.911011,1353.193604 1676.770752,1353.214722 1676.830200,1352.865234 
	C1675.810059,1351.441650 1674.730347,1350.367554 1673.716431,1349.176270 
	C1673.782227,1349.059082 1673.700684,1349.315186 1673.704468,1348.957520 
	C1670.709473,1345.136841 1667.710571,1341.673706 1664.801392,1338.233276 
	C1664.891113,1338.255981 1664.706177,1338.263794 1664.777710,1337.912598 
	C1663.461670,1336.121216 1662.073975,1334.680908 1660.743286,1333.158447 
	C1660.800171,1333.076050 1660.745361,1333.268555 1660.736206,1332.980713 
	C1660.416260,1332.503784 1660.105469,1332.314697 1659.854980,1332.135986 
	C1659.915283,1332.146484 1659.804932,1332.199463 1659.853516,1331.849854 
	C1658.824219,1330.418945 1657.746460,1329.337524 1656.728149,1328.169678 
	C1656.787598,1328.083130 1656.727783,1328.284302 1656.720703,1327.995117 
	C1656.400269,1327.519287 1656.087158,1327.332642 1655.839844,1327.157227 
	C1655.905640,1327.168457 1655.781494,1327.217896 1655.834473,1326.867676 
	C1654.810547,1325.434814 1653.733765,1324.352173 1652.717896,1323.209229 
	C1652.778931,1323.149048 1652.726318,1323.312256 1652.718262,1322.959717 
	C1651.052612,1320.797241 1649.395264,1318.987305 1647.788696,1317.157959 
	C1647.839600,1317.138428 1647.812134,1317.243896 1647.782959,1316.897827 
	C1646.408813,1315.098633 1645.063965,1313.645508 1643.772705,1312.161621 
	C1643.826416,1312.130615 1643.791260,1312.249512 1643.766602,1311.963989 
	C1643.432007,1311.487915 1643.122070,1311.297363 1642.864258,1311.116211 
	C1642.916504,1311.125488 1642.831299,1311.188721 1642.863403,1310.853516 
	C1642.259399,1310.008423 1641.623413,1309.498535 1641.001343,1308.998535 
	C1641.015381,1309.008423 1640.997192,1309.037476 1640.984131,1308.836670 
	C1640.893311,1308.363281 1640.728638,1308.161499 1640.213501,1307.784912 
	C1634.374756,1300.842773 1628.710083,1294.218628 1623.237915,1287.439087 
	C1555.218384,1203.168457 1487.231812,1118.871338 1419.226562,1034.589355 
	C1373.617798,978.064392 1328.049438,921.506653 1282.340454,865.062805 
	C1268.519531,847.996094 1254.288330,831.261597 1240.245117,814.374878 
M1361.675171,921.762512 
	C1401.413330,939.371094 1441.117554,957.057251 1480.918579,974.522461 
	C1488.828979,977.993713 1492.842529,983.530518 1493.394409,992.083740 
	C1493.908447,1000.048889 1494.871582,1007.985657 1495.673584,1015.931274 
	C1497.878540,1037.781250 1500.102661,1059.629272 1502.319336,1081.478027 
	C1503.131592,1089.484863 1503.944458,1097.491699 1504.796509,1105.887329 
	C1506.039062,1105.249634 1506.676758,1105.027344 1507.192993,1104.642212 
	C1523.352417,1092.593018 1539.601440,1080.658691 1555.523193,1068.302734 
	C1557.562866,1066.719849 1558.853882,1062.918945 1558.823120,1060.163940 
	C1558.741943,1052.861938 1557.655396,1045.576660 1557.135498,1038.272827 
	C1556.334961,1027.027954 1555.673584,1015.773254 1554.925659,1004.093384 
	C1556.382446,1004.443054 1557.198364,1004.536865 1557.934448,1004.830750 
	C1572.776489,1010.756287 1587.743530,1016.397583 1602.383667,1022.787231 
	C1609.033203,1025.689331 1614.309937,1025.123169 1619.946045,1020.801331 
	C1635.015381,1009.246033 1650.296997,997.967712 1665.462891,986.537659 
	C1668.072998,984.570496 1670.528809,982.398560 1673.754639,979.746887 
	C1668.949829,977.229675 1664.928589,975.005066 1660.807983,972.982849 
	C1628.063599,956.914062 1595.350708,940.779724 1562.499268,924.932373 
	C1556.194702,921.891113 1553.096436,917.570557 1552.720581,910.681396 
	C1552.394775,904.708923 1551.474976,898.768921 1550.819092,892.814331 
	C1546.720337,855.602051 1542.658569,818.385620 1538.488892,781.181335 
	C1537.757202,774.652344 1536.572144,768.174194 1535.552856,761.381958 
	C1534.305176,761.904846 1533.808350,762.007751 1533.439575,762.282532 
	C1511.802979,778.405334 1490.215088,794.593994 1468.500488,810.610962 
	C1465.855225,812.562195 1466.166016,814.523315 1466.718262,817.092346 
	C1469.165283,828.476807 1471.722290,839.845703 1473.774780,851.303528 
	C1474.884644,857.499756 1475.059692,863.863342 1475.762695,871.271057 
	C1473.004028,869.597656 1471.590454,868.774353 1470.210571,867.897888 
	C1457.413818,859.769836 1444.555664,851.735413 1431.879761,843.422791 
	C1428.861938,841.443726 1426.847656,841.578003 1424.010620,843.720337 
	C1404.472046,858.475281 1384.796875,873.049133 1365.177368,887.697144 
	C1355.738281,894.744629 1346.324951,901.826965 1335.812012,909.709351 
	C1344.852051,913.922424 1352.921143,917.682983 1361.675171,921.762512 
z"/>
<path fill="#2C2C34" opacity="1.000000" stroke="none" 
	d="
M1239.819092,814.178650 
	C1254.288330,831.261597 1268.519531,847.996094 1282.340454,865.062805 
	C1328.049438,921.506653 1373.617798,978.064392 1419.226562,1034.589355 
	C1487.231812,1118.871338 1555.218384,1203.168457 1623.237915,1287.439087 
	C1628.710083,1294.218628 1634.374756,1300.842773 1640.269409,1307.967407 
	C1640.660645,1308.650635 1640.796753,1308.864502 1640.997192,1309.037476 
	C1640.997192,1309.037476 1641.015381,1309.008423 1640.985229,1309.320557 
	C1641.580444,1310.151367 1642.205933,1310.670044 1642.831299,1311.188721 
	C1642.831299,1311.188721 1642.916504,1311.125488 1642.869263,1311.411621 
	C1643.145020,1311.881592 1643.468140,1312.065552 1643.791260,1312.249512 
	C1643.791260,1312.249512 1643.826416,1312.130615 1643.796143,1312.505371 
	C1645.114624,1314.334717 1646.463379,1315.789307 1647.812134,1317.243896 
	C1647.812134,1317.243896 1647.839600,1317.138428 1647.811279,1317.505127 
	C1649.430664,1319.685303 1651.078491,1321.498779 1652.726318,1323.312256 
	C1652.726318,1323.312256 1652.778931,1323.149048 1652.738770,1323.544189 
	C1653.726196,1325.032227 1654.753784,1326.125122 1655.781494,1327.217896 
	C1655.781494,1327.217896 1655.905640,1327.168457 1655.843506,1327.448730 
	C1656.096802,1327.914062 1656.412354,1328.099121 1656.727783,1328.284302 
	C1656.727783,1328.284302 1656.787598,1328.083130 1656.748535,1328.505127 
	C1657.741333,1330.017944 1658.773193,1331.108643 1659.804932,1332.199463 
	C1659.804932,1332.199463 1659.915283,1332.146484 1659.853271,1332.430298 
	C1660.109375,1332.898926 1660.427368,1333.083740 1660.745361,1333.268555 
	C1660.745361,1333.268555 1660.800171,1333.076050 1660.759155,1333.499146 
	C1662.047485,1335.369385 1663.376831,1336.816650 1664.706177,1338.263794 
	C1664.706177,1338.263794 1664.891113,1338.255981 1664.817139,1338.582520 
	C1667.729004,1342.377808 1670.714844,1345.846436 1673.700684,1349.315186 
	C1673.700684,1349.315186 1673.782227,1349.059082 1673.727051,1349.510986 
	C1674.704834,1351.046753 1675.737793,1352.130737 1676.770752,1353.214722 
	C1676.770752,1353.214722 1676.911011,1353.193604 1676.837646,1353.465942 
	C1677.079834,1353.919312 1677.395508,1354.100220 1677.711182,1354.281250 
	C1677.711182,1354.281250 1677.696533,1354.066040 1677.689209,1354.512207 
	C1679.008301,1356.398804 1680.334717,1357.839478 1681.661133,1359.280029 
	C1681.661133,1359.280029 1681.708130,1359.297607 1681.709229,1359.621582 
	C1684.370728,1363.048584 1687.031006,1366.151733 1689.691284,1369.254761 
	C1689.691284,1369.254761 1689.761597,1369.284302 1689.740479,1369.595581 
	C1691.054077,1371.349243 1692.388672,1372.791748 1693.723267,1374.234131 
	C1693.723267,1374.234131 1693.838257,1374.266479 1693.786621,1374.577148 
	C1695.360229,1376.690430 1696.985596,1378.492920 1698.610840,1380.295532 
	C1698.610840,1380.295532 1698.644043,1380.116211 1698.656982,1380.544922 
	C1699.986572,1382.409424 1701.303223,1383.845215 1702.619751,1385.281006 
	C1702.619751,1385.281006 1702.661377,1385.135254 1702.672607,1385.548950 
	C1704.004883,1387.395996 1705.325928,1388.829224 1706.646851,1390.262573 
	C1706.646851,1390.262573 1706.671875,1390.123047 1706.678955,1390.532471 
	C1708.016846,1392.377441 1709.347656,1393.812988 1710.678589,1395.248535 
	C1710.678589,1395.248535 1710.676025,1395.166992 1710.692993,1395.548462 
	C1716.376587,1403.053467 1721.965820,1410.240356 1727.731934,1417.282471 
	C1733.252808,1424.025146 1738.957153,1430.617554 1744.580811,1437.276001 
	C1744.580811,1437.276001 1744.645264,1437.268555 1744.642456,1437.639648 
	C1746.240479,1440.115112 1747.783081,1442.266846 1749.451660,1444.316162 
	C1761.043457,1458.554688 1772.661255,1472.772095 1784.270752,1486.996216 
	C1783.165894,1488.391113 1782.218384,1489.954346 1780.932861,1491.155762 
	C1757.029419,1513.492798 1729.301514,1530.520264 1701.706299,1547.649780 
	C1635.503540,1588.743896 1564.932983,1620.994263 1492.722900,1649.823975 
	C1420.618408,1678.611694 1348.321167,1706.921387 1276.371704,1736.090088 
	C1256.806641,1744.021973 1238.201416,1754.317627 1219.133911,1763.483154 
	C1214.959961,1765.489502 1210.693604,1767.303833 1204.930542,1769.900391 
	C1206.216187,1761.766846 1207.010132,1754.808594 1208.445557,1747.985107 
	C1216.595215,1709.244141 1232.401733,1673.344482 1249.646606,1638.003418 
	C1272.479004,1591.211548 1301.224731,1548.218018 1333.529663,1507.502319 
	C1339.406738,1500.095093 1344.834839,1492.331665 1350.470215,1484.732788 
	C1350.209229,1484.335571 1349.948242,1483.938354 1349.687134,1483.541138 
	C1347.489746,1484.267578 1345.227905,1484.842651 1343.104980,1485.744751 
	C1326.660767,1492.730835 1312.863159,1503.882446 1298.637329,1514.311157 
	C1223.417114,1569.453613 1166.988647,1640.384644 1123.247803,1722.193481 
	C1089.661499,1785.010376 1065.639771,1851.293213 1049.743774,1920.556641 
	C1044.043091,1945.396118 1040.061401,1970.628906 1035.182739,1995.660156 
	C1034.532959,1998.994019 1033.217896,2002.198242 1031.877075,2006.544922 
	C1029.181274,2003.201416 1026.869019,2000.982056 1025.322144,1998.318115 
	C998.756409,1952.569946 973.266235,1906.300293 952.044678,1857.717407 
	C924.269104,1794.130249 900.451904,1729.268921 886.207458,1661.232178 
	C881.191345,1637.273193 877.319336,1613.038818 873.900146,1588.792480 
	C871.076294,1568.767700 869.174622,1548.574219 867.838257,1528.390991 
	C866.872253,1513.801270 867.054138,1499.091187 867.529114,1484.460938 
	C868.202637,1463.710815 868.425659,1442.838867 870.944580,1422.276611 
	C877.667297,1367.398071 891.481567,1314.293091 914.753174,1263.938232 
	C937.704285,1214.277100 966.424622,1168.274292 1005.133850,1129.336182 
	C1021.995605,1112.374634 1040.738892,1097.206055 1059.246948,1081.975830 
	C1090.391724,1056.347168 1121.832520,1031.092651 1150.577271,1002.707642 
	C1179.885010,973.766663 1204.514526,941.511597 1221.248535,903.598877 
	C1232.919556,877.156738 1237.857422,849.423584 1237.676636,820.635315 
	C1237.662964,818.421387 1238.793945,816.200256 1239.819092,814.178650 
M1205.977295,1143.564453 
	C1213.285278,1154.468262 1219.619141,1166.201660 1228.074097,1176.128540 
	C1260.501953,1214.201660 1301.184570,1231.658936 1351.686401,1224.011719 
	C1389.489990,1218.287476 1417.707397,1197.485596 1441.350220,1168.986572 
	C1443.917725,1165.891724 1444.236328,1162.569458 1442.342407,1158.779053 
	C1436.385620,1146.856934 1430.662598,1134.818237 1424.824707,1122.836548 
	C1424.140991,1121.433472 1423.304810,1120.104614 1422.104004,1117.966064 
	C1420.395996,1120.459961 1419.382324,1122.357666 1417.984131,1123.908691 
	C1412.218750,1130.304199 1407.054443,1137.512695 1400.359863,1142.747803 
	C1381.868896,1157.207886 1359.188599,1157.968018 1340.254883,1145.859375 
	C1320.379395,1133.148071 1310.082031,1109.363525 1314.273804,1087.316772 
	C1317.504028,1070.327637 1327.124268,1058.039062 1340.831909,1048.364136 
	C1347.457520,1043.687744 1354.069336,1038.991577 1360.828247,1034.204590 
	C1360.353516,1033.398071 1360.097290,1032.790283 1359.694580,1032.303467 
	C1338.888306,1007.146973 1318.011108,982.048645 1297.326782,956.792297 
	C1294.772461,953.673340 1292.700806,954.091248 1289.710693,955.629517 
	C1260.392944,970.711365 1234.929321,990.490906 1215.436646,1017.305054 
	C1202.370850,1035.278564 1194.192871,1055.383179 1192.409302,1077.660400 
	C1190.573242,1100.591675 1195.631226,1122.286621 1205.977295,1143.564453 
z"/>
<path fill="#2C2C34" opacity="1.000000" stroke="none" 
	d="
M840.868652,316.903381 
	C852.457397,331.428406 863.435120,346.078247 874.896729,360.339264 
	C911.839172,406.304565 948.954041,452.131348 986.013306,498.002716 
	C1034.903198,558.517944 1083.805908,619.022827 1132.698120,679.536255 
	C1151.124023,702.341919 1169.496338,725.190979 1187.997925,747.934998 
	C1190.606323,751.141418 1193.813110,753.860962 1197.013428,756.850159 
	C1196.953613,762.429932 1197.087646,768.040161 1196.210449,773.487610 
	C1192.823608,794.522705 1188.131348,815.239319 1178.533936,834.470947 
	C1154.269287,883.093506 1114.857422,911.601807 1061.821899,921.654053 
	C1040.713135,925.654968 1019.354675,928.419861 998.353943,932.893250 
	C945.834351,944.080566 908.423340,975.007446 883.930542,1022.318176 
	C868.933655,1051.286499 859.689026,1082.201660 852.147827,1113.771484 
	C845.756775,1140.526123 839.163330,1167.243774 831.955322,1193.786621 
	C828.710693,1205.734619 822.519409,1216.618164 813.844360,1225.604858 
	C809.887634,1229.703857 805.080750,1233.466675 799.945923,1235.835083 
	C791.315308,1239.815796 782.607239,1238.033569 775.818359,1231.530396 
	C763.658813,1219.882446 757.286377,1206.297607 762.858704,1188.857788 
	C767.155518,1175.410278 770.534973,1161.669556 774.303101,1148.053711 
	C774.553040,1147.150757 774.640442,1146.203003 775.040894,1143.926270 
	C771.007385,1145.489990 767.680847,1146.347656 764.789429,1147.977173 
	C753.709167,1154.221802 745.593933,1163.551514 739.921082,1174.675415 
	C733.513428,1187.240112 728.098816,1200.308716 722.150818,1213.111084 
	C719.208862,1219.443359 716.059021,1225.679565 712.967834,1231.941650 
	C706.105286,1245.844238 694.477173,1252.394531 679.415771,1253.586182 
	C661.709290,1254.987183 645.864075,1249.878174 631.376099,1239.904663 
	C604.119568,1221.141113 588.739075,1194.646729 582.100098,1162.862549 
	C579.158447,1148.779541 576.969360,1134.430908 575.921875,1120.094360 
	C575.056030,1108.244751 575.799805,1096.186646 576.825928,1084.306763 
	C580.049927,1046.979004 587.349609,1010.364563 598.484619,974.617920 
	C612.774109,928.744690 627.690857,883.066895 642.349548,837.308777 
	C655.075928,797.582703 668.360901,758.018982 677.373962,717.211487 
	C683.966614,687.362122 689.015625,657.262268 690.619751,626.703796 
	C691.674255,606.615479 691.454407,586.450806 692.843506,566.392212 
	C694.172668,547.199158 696.727173,528.085266 698.980103,508.964478 
	C699.931885,500.886536 699.401062,499.159973 692.109924,495.592834 
	C643.173340,471.651031 594.255920,447.669495 545.259705,423.850189 
	C370.547424,338.914398 195.804245,254.042191 21.092495,169.105316 
	C18.216505,167.707138 15.590007,165.795746 12.847084,164.123840 
	C13.042946,163.635803 13.238808,163.147766 13.434669,162.659729 
	C15.586622,163.043884 17.789719,163.246948 19.883162,163.838242 
	C107.848686,188.683823 195.803696,213.566635 283.761505,238.439484 
	C436.964569,281.762482 590.174866,325.059906 743.349548,368.483215 
	C749.498352,370.226349 754.650513,369.314911 759.923340,366.038544 
	C785.103943,350.392120 810.361389,334.869202 835.608948,319.330750 
	C837.155457,318.378937 838.852295,317.671356 840.868652,316.903381 
z"/>
<path fill="#95B4C5" opacity="1.000000" stroke="none" 
	d="
M1784.531006,1487.032959 
	C1772.661255,1472.772095 1761.043457,1458.554688 1749.451660,1444.316162 
	C1747.783081,1442.266846 1746.240479,1440.115112 1744.656982,1437.668701 
	C1748.661987,1441.634644 1752.847290,1445.778198 1756.597900,1450.283813 
	C1765.510986,1460.991699 1774.231079,1471.860718 1782.987915,1482.697998 
	C1783.812134,1483.718018 1784.345703,1484.972900 1785.113403,1486.437134 
	C1785.072144,1486.860352 1784.931763,1486.965088 1784.531006,1487.032959 
z"/>
<path fill="#2D2F37" opacity="1.000000" stroke="none" 
	d="
M1361.332764,921.603027 
	C1352.921143,917.682983 1344.852051,913.922424 1335.812012,909.709351 
	C1346.324951,901.826965 1355.738281,894.744629 1365.177368,887.697144 
	C1384.796875,873.049133 1404.472046,858.475281 1424.010620,843.720337 
	C1426.847656,841.578003 1428.861938,841.443726 1431.879761,843.422791 
	C1444.555664,851.735413 1457.413818,859.769836 1470.210571,867.897888 
	C1471.590454,868.774353 1473.004028,869.597656 1475.762695,871.271057 
	C1475.059692,863.863342 1474.884644,857.499756 1473.774780,851.303528 
	C1471.722290,839.845703 1469.165283,828.476807 1466.718262,817.092346 
	C1466.166016,814.523315 1465.855225,812.562195 1468.500488,810.610962 
	C1490.215088,794.593994 1511.802979,778.405334 1533.439575,762.282532 
	C1533.808350,762.007751 1534.305176,761.904846 1535.552856,761.381958 
	C1536.572144,768.174194 1537.757202,774.652344 1538.488892,781.181335 
	C1542.658569,818.385620 1546.720337,855.602051 1550.819092,892.814331 
	C1551.474976,898.768921 1552.394775,904.708923 1552.720581,910.681396 
	C1553.096436,917.570557 1556.194702,921.891113 1562.499268,924.932373 
	C1595.350708,940.779724 1628.063599,956.914062 1660.807983,972.982849 
	C1664.928589,975.005066 1668.949829,977.229675 1673.754639,979.746887 
	C1670.528809,982.398560 1668.072998,984.570496 1665.462891,986.537659 
	C1650.296997,997.967712 1635.015381,1009.246033 1619.946045,1020.801331 
	C1614.309937,1025.123169 1609.033203,1025.689331 1602.383667,1022.787231 
	C1587.743530,1016.397583 1572.776489,1010.756287 1557.934448,1004.830750 
	C1557.198364,1004.536865 1556.382446,1004.443054 1554.925659,1004.093384 
	C1555.673584,1015.773254 1556.334961,1027.027954 1557.135498,1038.272827 
	C1557.655396,1045.576660 1558.741943,1052.861938 1558.823120,1060.163940 
	C1558.853882,1062.918945 1557.562866,1066.719849 1555.523193,1068.302734 
	C1539.601440,1080.658691 1523.352417,1092.593018 1507.192993,1104.642212 
	C1506.676758,1105.027344 1506.039062,1105.249634 1504.796509,1105.887329 
	C1503.944458,1097.491699 1503.131592,1089.484863 1502.319336,1081.478027 
	C1500.102661,1059.629272 1497.878540,1037.781250 1495.673584,1015.931274 
	C1494.871582,1007.985657 1493.908447,1000.048889 1493.394409,992.083740 
	C1492.842529,983.530518 1488.828979,977.993713 1480.918579,974.522461 
	C1441.117554,957.057251 1401.413330,939.371094 1361.332764,921.603027 
z"/>
<path fill="#95B4C5" opacity="1.000000" stroke="none" 
	d="
M1744.700928,1436.927002 
	C1738.957153,1430.617554 1733.252808,1424.025146 1727.731934,1417.282471 
	C1721.965820,1410.240356 1716.376587,1403.053467 1710.716309,1395.581909 
	C1714.795654,1399.680420 1719.047119,1403.978394 1722.903687,1408.605469 
	C1730.090942,1417.228638 1737.055542,1426.037720 1744.082764,1434.793579 
	C1744.469727,1435.275513 1744.581299,1435.978149 1744.700928,1436.927002 
z"/>
<path fill="#95B4C5" opacity="1.000000" stroke="none" 
	d="
M1673.704468,1348.957520 
	C1670.714844,1345.846436 1667.729004,1342.377808 1664.727417,1338.559814 
	C1667.710571,1341.673706 1670.709473,1345.136841 1673.704468,1348.957520 
z"/>
<path fill="#95B4C5" opacity="1.000000" stroke="none" 
	d="
M1689.772583,1368.898438 
	C1687.031006,1366.151733 1684.370728,1363.048584 1681.699951,1359.598389 
	C1684.411011,1362.348145 1687.132446,1365.445068 1689.772583,1368.898438 
z"/>
<path fill="#95B4C5" opacity="1.000000" stroke="none" 
	d="
M1698.712402,1379.947021 
	C1696.985596,1378.492920 1695.360229,1376.690430 1693.739014,1374.541138 
	C1695.433350,1375.995850 1697.123779,1377.797241 1698.712402,1379.947021 
z"/>
<path fill="#95B4C5" opacity="1.000000" stroke="none" 
	d="
M1652.718262,1322.959717 
	C1651.078491,1321.498779 1649.430664,1319.685303 1647.760254,1317.524658 
	C1649.395264,1318.987305 1651.052612,1320.797241 1652.718262,1322.959717 
z"/>
<path fill="#95B4C5" opacity="1.000000" stroke="none" 
	d="
M1664.777710,1337.912598 
	C1663.376831,1336.816650 1662.047485,1335.369385 1660.702271,1333.581543 
	C1662.073975,1334.680908 1663.461670,1336.121216 1664.777710,1337.912598 
z"/>
<path fill="#95B4C5" opacity="1.000000" stroke="none" 
	d="
M1702.722656,1384.934814 
	C1701.303223,1383.845215 1699.986572,1382.409424 1698.666260,1380.635742 
	C1700.050171,1381.727905 1701.437866,1383.158203 1702.722656,1384.934814 
z"/>
<path fill="#95B4C5" opacity="1.000000" stroke="none" 
	d="
M1693.797974,1373.885254 
	C1692.388672,1372.791748 1691.054077,1371.349243 1689.718262,1369.564697 
	C1691.102295,1370.660400 1692.487549,1372.098389 1693.797974,1373.885254 
z"/>
<path fill="#95B4C5" opacity="1.000000" stroke="none" 
	d="
M1681.747559,1358.930298 
	C1680.334717,1357.839478 1679.008301,1356.398804 1677.672241,1354.618652 
	C1679.052979,1355.712891 1680.443481,1357.146729 1681.747559,1358.930298 
z"/>
<path fill="#95B4C5" opacity="1.000000" stroke="none" 
	d="
M1706.744873,1389.916504 
	C1705.325928,1388.829224 1704.004883,1387.395996 1702.681519,1385.624268 
	C1704.067017,1386.713989 1705.454956,1388.142090 1706.744873,1389.916504 
z"/>
<path fill="#95B4C5" opacity="1.000000" stroke="none" 
	d="
M1710.768311,1394.901245 
	C1709.347656,1393.812988 1708.016846,1392.377441 1706.693359,1390.601807 
	C1708.086426,1391.692505 1709.472290,1393.123291 1710.768311,1394.901245 
z"/>
<path fill="#95B4C5" opacity="1.000000" stroke="none" 
	d="
M1647.782959,1316.897827 
	C1646.463379,1315.789307 1645.114624,1314.334717 1643.742432,1312.536377 
	C1645.063965,1313.645508 1646.408813,1315.098633 1647.782959,1316.897827 
z"/>
<path fill="#95B4C5" opacity="1.000000" stroke="none" 
	d="
M1676.830200,1352.865234 
	C1675.737793,1352.130737 1674.704834,1351.046753 1673.661255,1349.628174 
	C1674.730347,1350.367554 1675.810059,1351.441650 1676.830200,1352.865234 
z"/>
<path fill="#95B4C5" opacity="1.000000" stroke="none" 
	d="
M1659.853516,1331.849854 
	C1658.773193,1331.108643 1657.741333,1330.017944 1656.689087,1328.591675 
	C1657.746460,1329.337524 1658.824219,1330.418945 1659.853516,1331.849854 
z"/>
<path fill="#95B4C5" opacity="1.000000" stroke="none" 
	d="
M1655.834473,1326.867676 
	C1654.753784,1326.125122 1653.726196,1325.032227 1652.677734,1323.604492 
	C1653.733765,1324.352173 1654.810547,1325.434814 1655.834473,1326.867676 
z"/>
<path fill="#95B4C5" opacity="1.000000" stroke="none" 
	d="
M1642.863403,1310.853516 
	C1642.205933,1310.670044 1641.580444,1310.151367 1640.971191,1309.310669 
	C1641.623413,1309.498535 1642.259399,1310.008423 1642.863403,1310.853516 
z"/>
<path fill="#95B4C5" opacity="1.000000" stroke="none" 
	d="
M1640.984131,1308.836670 
	C1640.796753,1308.864502 1640.660645,1308.650635 1640.532837,1308.213257 
	C1640.728638,1308.161499 1640.893311,1308.363281 1640.984131,1308.836670 
z"/>
<path fill="#95B4C5" opacity="1.000000" stroke="none" 
	d="
M1677.712158,1353.992676 
	C1677.395508,1354.100220 1677.079834,1353.919312 1676.769531,1353.446289 
	C1677.087646,1353.337402 1677.400391,1353.520752 1677.712158,1353.992676 
z"/>
<path fill="#95B4C5" opacity="1.000000" stroke="none" 
	d="
M1660.736206,1332.980713 
	C1660.427368,1333.083740 1660.109375,1332.898926 1659.792969,1332.419800 
	C1660.105469,1332.314697 1660.416260,1332.503784 1660.736206,1332.980713 
z"/>
<path fill="#95B4C5" opacity="1.000000" stroke="none" 
	d="
M1656.720703,1327.995117 
	C1656.412354,1328.099121 1656.096802,1327.914062 1655.777588,1327.437500 
	C1656.087158,1327.332642 1656.400269,1327.519287 1656.720703,1327.995117 
z"/>
<path fill="#95B4C5" opacity="1.000000" stroke="none" 
	d="
M1643.766602,1311.963989 
	C1643.468140,1312.065552 1643.145020,1311.881592 1642.817139,1311.402222 
	C1643.122070,1311.297363 1643.432007,1311.487915 1643.766602,1311.963989 
z"/>
<path fill="#59C5F8" opacity="1.000000" stroke="none" 
	d="
M1205.810547,1143.230469 
	C1195.631226,1122.286621 1190.573242,1100.591675 1192.409302,1077.660400 
	C1194.192871,1055.383179 1202.370850,1035.278564 1215.436646,1017.305054 
	C1234.929321,990.490906 1260.392944,970.711365 1289.710693,955.629517 
	C1292.700806,954.091248 1294.772461,953.673340 1297.326782,956.792297 
	C1318.011108,982.048645 1338.888306,1007.146973 1359.694580,1032.303467 
	C1360.097290,1032.790283 1360.353516,1033.398071 1360.828247,1034.204590 
	C1354.069336,1038.991577 1347.457520,1043.687744 1340.831909,1048.364136 
	C1327.124268,1058.039062 1317.504028,1070.327637 1314.273804,1087.316772 
	C1310.082031,1109.363525 1320.379395,1133.148071 1340.254883,1145.859375 
	C1359.188599,1157.968018 1381.868896,1157.207886 1400.359863,1142.747803 
	C1407.054443,1137.512695 1412.218750,1130.304199 1417.984131,1123.908691 
	C1419.382324,1122.357666 1420.395996,1120.459961 1422.104004,1117.966064 
	C1423.304810,1120.104614 1424.140991,1121.433472 1424.824707,1122.836548 
	C1430.662598,1134.818237 1436.385620,1146.856934 1442.342407,1158.779053 
	C1444.236328,1162.569458 1443.917725,1165.891724 1441.350220,1168.986572 
	C1417.707397,1197.485596 1389.489990,1218.287476 1351.686401,1224.011719 
	C1301.184570,1231.658936 1260.501953,1214.201660 1228.074097,1176.128540 
	C1219.619141,1166.201660 1213.285278,1154.468262 1205.810547,1143.230469 
z"/>
</svg>