<svg xmlns="http://www.w3.org/2000/svg" id="Layer_1" data-name="Layer 1" viewBox="13.25 0 22.92 22.92">
  <path d="m23.95.03c6.31-.42,11.77,4.35,12.2,10.67.42,6.31-4.35,11.77-10.67,12.2-6.31.42-11.77-4.35-12.2-10.67-.29-4.38,1.94-8.54,5.75-10.72,1.5-.86,3.18-1.36,4.91-1.48Zm.35.97c-5.78.23-10.27,5.1-10.04,10.87.23,5.78,5.1,10.27,10.87,10.04,5.77-.23,10.27-5.1,10.04-10.87-.14-3.52-2.04-6.73-5.05-8.55-1.75-1.06-3.78-1.58-5.82-1.49h0Z"/>
  <path d="m21.77,2.84c1.12-.37,2.3-.53,3.47-.46.12,0,.25.02.36.06,1.29,1.03,2.31,2.35,2.98,3.86.72,1.74.98,3.64.77,5.51-.13,1.36-.46,2.7-.97,3.97h.92c.09-.23.17-.47.26-.7,1.07.14,2.06.63,2.81,1.4-.75.78-1.75,1.27-2.82,1.4-.09-.23-.18-.45-.26-.68h-8.45c-.14,0-.28.06-.39.14-.31.16-.62.32-.92.47-.11.05-.24.07-.36.06h-1.09c-.77-.82-1.39-1.76-1.83-2.79h2.49c.18-.02.36,0,.53.06.41.18.83.36,1.24.54.31.18.69.07,1.03.1-.05-.88-.31-1.74-.75-2.51-.47-.74-1.11-1.35-1.88-1.77-1.03-.55-2.14-.94-3.29-1.15.15-1.22.55-2.39,1.17-3.45.81.18,1.61.42,2.39.71.84.3,1.63.71,2.35,1.22l.23-.11c-.47-.52-.99-.99-1.57-1.39-.82-.6-1.67-1.14-2.56-1.63.75-.91,1.66-1.67,2.7-2.23.71.29,1.37.68,1.97,1.16.91.73,1.75,1.53,2.51,2.4l.3-.08c-.77-1.61-1.99-2.96-3.34-4.12Zm4.16,9.66c-.6.19-.92.83-.74,1.42.19.6.83.92,1.42.74.6-.19.92-.83.74-1.42-.07-.22-.21-.42-.4-.56-.29-.22-.68-.29-1.03-.18Z"/>
</svg>