<svg xmlns="http://www.w3.org/2000/svg" version="1.0" viewBox="5 5 486.43 51.12" style="background-color:transparent;">
  <g transform="matrix(0.40945179,0,0,0.40945179,5,4.9999988)">
    <path fill="#4c5356" d="m 1163.397,122.88 -38.071,-61.264 c -6.817,-10.926 -10.593,-18.091 -14.178,-26.151 h -0.359 c 0.892,12.18 1.796,34.927 1.796,54.449 v 32.965 H 1089.96 V 1.968 h 26.571 l 35.733,57.32 c 6.286,9.851 11.133,18.986 14.536,26.51 h 0.366 c -0.896,-13.253 -1.798,-34.569 -1.798,-54.451 V 1.968 H 1188 V 122.88 Z"/>
    <path fill="#4c5356" d="M984.755 1.968 1057.83 1.968 1057.83 21.492 1008.092 21.492 1008.092 51.409 1053.875 51.409 1053.875 70.036 1008.092 70.036 1008.092 102.817 1058.37 102.817 1058.37 122.88 984.755 122.88z"/>
    <path fill="#4c5356" d="m 948.859,117.146 c -12.037,4.832 -26.938,7.522 -41.478,7.522 -39.863,0 -61.229,-23.644 -61.229,-59.648 0,-38.329 23.52,-64.841 67.329,-64.841 10.234,0 21.551,1.612 30.524,4.119 v 22.749 c -9.88,-4.119 -21.547,-6.09 -31.961,-6.09 -28.73,0 -40.579,18.987 -40.579,41.555 0,25.436 13.462,41.197 38.604,41.197 5.747,0 10.771,-0.713 15.441,-2.144 V 59.468 h 23.345 v 57.678 z"/>
    <path fill="#4c5356" d="m 807.196,122.88 -8.264,-25.793 h -45.603 l -8.435,25.793 H 721.369 L 761.952,1.968 h 30.341 L 833.05,122.88 Z M 781.161,40.84 c -1.977,-6.27 -3.594,-12.36 -4.85,-18.091 h -0.362 c -1.257,5.731 -2.873,12.001 -4.667,17.91 L 758.72,78.636 h 35.01 z"/>
    <path fill="#4c5356" d="M 685.835,122.88 H 656.928 L 638.434,56.781 c -1.615,-6.447 -3.051,-14.688 -3.951,-22.032 h -0.359 c -1.077,7.702 -2.152,15.585 -3.771,22.032 L 612.22,122.88 H 583.133 L 552.788,1.968 h 24.957 l 16.157,66.096 c 2.333,11.283 3.95,20.959 5.208,30.096 h 0.359 c 1.258,-9.137 3.053,-19.167 5.746,-29.737 L 623.527,1.968 h 23.344 l 18.853,67.173 c 2.515,8.955 4.849,19.343 6.283,29.019 h 0.36 c 1.256,-9.316 2.691,-19.167 4.669,-28.66 L 693.02,1.968 h 22.982 z"/>
    <path fill="#4c5356" d="m 528.556,22.75 c -6.643,-1.972 -15.261,-3.403 -22.444,-3.403 -13.286,0 -20.11,5.373 -20.11,13.969 0,22.037 52.61,14.334 52.61,54.098 0,21.674 -16.519,37.436 -46.144,37.436 -10.057,0 -20.291,-1.256 -28.191,-3.4 V 99.233 c 7.9,3.045 19.396,5.377 29.087,5.377 11.854,0 20.291,-4.478 20.291,-15.048 0,-23.288 -51.891,-14.691 -51.891,-54.095 0,-20.957 16.878,-35.466 45.786,-35.466 6.643,0 14.542,0.895 21.005,2.148 z"/>
    <path fill="#4c5356" d="M377.024 122.88 353.684 122.88 353.684 1.968 377.024 1.968 377.024 56.781 417.963 1.968 445.614 1.968 400.906 59.645 448.489 122.88 419.4 122.88 377.024 64.84z"/>
    <path fill="#4c5356" d="M263.736 1.968 287.08 1.968 287.08 102.637 331.247 102.637 331.247 122.88 263.736 122.88z"/>
    <path fill="#4c5356" d="m 177.922,124.848 c -36.45,0 -55.66,-22.211 -55.66,-60.186 C 122.262,22.75 149.554,0 181.693,0 c 36.449,0 55.662,22.21 55.662,60.183 0.002,41.914 -27.293,64.665 -59.433,64.665 z m 1.796,-103.891 c -19.031,0 -32.498,14.331 -32.498,40.839 0,25.974 10.775,42.092 32.498,42.092 19.032,0 32.678,-14.328 32.678,-41.018 0,-25.791 -10.772,-41.913 -32.678,-41.913 z"/>
    <path fill="#4c5356" d="M 71.102,122.88 H 40.758 L 0,1.968 h 25.854 l 23.343,72.366 c 2.333,8.06 5.208,18.451 7.182,26.87 h 0.357 c 1.978,-8.242 4.67,-18.451 7.363,-27.225 L 87.62,1.968 h 24.062 z"/>
  </g>
</svg>