<?xml version="1.0" encoding="UTF-8"?>
<svg id="master-artboard" xmlns="http://www.w3.org/2000/svg" viewBox="0 0 50.94 50.94">
  <path d="m25.47,47.89c-12.23,0-22.41-10.19-22.41-22.41,0-3.06,0-5.09,1.02-8.15l13.24,26.49s0,1.02,1.02,1.02,1.02,0,1.02-1.02l6.11-13.24h0l6.11,13.24s0,1.02,1.02,1.02,1.02,0,1.02-1.02l13.24-26.49c1.02,2.04,1.02,5.09,1.02,8.15,0,12.23-10.19,22.41-22.41,22.41Zm0-27.51h0l-7.13-16.3c2.04-1.02,5.09-1.02,7.13-1.02,3.06,0,5.09,0,7.13,1.02l-7.13,16.3h0Zm-7.13,16.3h0L6.11,13.24c2.04-3.06,5.09-6.11,8.15-8.15l8.15,18.34h6.11l8.15-18.34c3.06,2.04,6.11,4.08,8.15,8.15l-11.21,23.43h0l-4.08-10.19h-6.11l-5.09,10.19h0Zm7.13,14.26c14.26,0,25.47-11.21,25.47-25.47S39.73,0,25.47,0,0,11.21,0,25.47s11.21,25.47,25.47,25.47Z"/>
</svg>